<svg
    xmlns="http://www.w3.org/2000/svg"
    version="1.1"
    width="164"
    height="164"
    x="0"
    y="0"
    viewBox="0 0 520 520">
    <g>
    <path
        fill="#ecf0f1"
        d="M101 222.5c-19.88 0-36 16.12-36 36v173c0 19.88 16.12 36 36 36h318c19.891 0 36-16.12 36-36v-173c0-19.88-16.109-36-36-36z"
        opacity="1"
        data-original="#ecf0f1"></path>
    <path
        fill="#d7e816"
        d="M432.5 92.5c15.19 0 27.5 12.31 27.5 27.5s-12.31 27.5-27.5 27.5c-15.18 0-27.5-12.31-27.5-27.5s12.32-27.5 27.5-27.5zM90 132.5c11.05 0 20 8.95 20 20s-8.95 20-20 20c-11.04 0-20-8.95-20-20s8.96-20 20-20z"
        opacity="1"
        data-original="#d7e816"></path>
    <path
        fill="#163eb1"
        d="m155.79 322.96 13.56 37.86-13.56 13.56-13.55-13.56z"
        opacity="1"
        data-original="#163eb1"></path>
    <path
        fill="#5cbeff"
        d="M155.79 322.96c29.94 0 54.21 24.271 54.21 54.21 0 7.191-1.41 14.05-3.95 20.33H105.54a54.103 54.103 0 0 1-3.96-20.33c0-29.94 24.27-54.21 54.21-54.21l-13.55 37.86 13.55 13.56 13.56-13.56z"
        opacity="1"
        data-original="#5cbeff"></path>
    <path
        fill="#ffd5ab"
        d="M155.79 268.75c14.97 0 27.11 12.14 27.11 27.11s-12.14 27.1-27.11 27.1-27.1-12.13-27.1-27.1 12.13-27.11 27.1-27.11z"
        opacity="1"
        data-original="#ffd5ab"></path>
    <path
        fill="#d94556"
        d="m211 113.5 50 107.14-20 42.86-21-45-49-105z"
        opacity="1"
        data-original="#d94556"></path>
    <path
        fill="#ff5722"
        d="M477.5 282.5c4.15 0 7.5 3.36 7.5 7.5s-3.35 7.5-7.5 7.5c-4.14 0-7.5-3.36-7.5-7.5s3.36-7.5 7.5-7.5zM457.5 167.5c4.15 0 7.5 3.36 7.5 7.5s-3.35 7.5-7.5 7.5c-4.14 0-7.5-3.36-7.5-7.5s3.36-7.5 7.5-7.5zM357.5 67.5c4.15 0 7.5 3.36 7.5 7.5s-3.35 7.5-7.5 7.5c-4.14 0-7.5-3.36-7.5-7.5s3.36-7.5 7.5-7.5zM352.5 182.5c4.15 0 7.5 3.36 7.5 7.5s-3.35 7.5-7.5 7.5c-4.14 0-7.5-3.36-7.5-7.5s3.36-7.5 7.5-7.5z"
        opacity="1"
        data-original="#ff5722"></path>
    <g fill="#079cff">
        <circle
        cx="250"
        cy="337.5"
        r="5"
        fill="#079cff"
        opacity="1"
        data-original="#079cff"></circle>
        <circle
        cx="250"
        cy="357.5"
        r="5"
        fill="#079cff"
        opacity="1"
        data-original="#079cff"></circle>
        <circle
        cx="250"
        cy="377.5"
        r="5"
        fill="#079cff"
        opacity="1"
        data-original="#079cff"></circle>
        <circle
        cx="250"
        cy="397.5"
        r="5"
        fill="#079cff"
        opacity="1"
        data-original="#079cff"></circle>
        <circle
        cx="250"
        cy="417.5"
        r="5"
        fill="#079cff"
        opacity="1"
        data-original="#079cff"></circle>
    </g>
    <path
        fill="#ff5722"
        d="M207.5 52.5c4.15 0 7.5 3.36 7.5 7.5s-3.35 7.5-7.5 7.5c-4.14 0-7.5-3.36-7.5-7.5s3.36-7.5 7.5-7.5zM152.5 172.5c4.15 0 7.5 3.36 7.5 7.5s-3.35 7.5-7.5 7.5c-4.14 0-7.5-3.36-7.5-7.5s3.36-7.5 7.5-7.5zM112.5 82.5c4.15 0 7.5 3.36 7.5 7.5s-3.35 7.5-7.5 7.5c-4.14 0-7.5-3.36-7.5-7.5s3.36-7.5 7.5-7.5zM42.5 207.5c4.15 0 7.5 3.36 7.5 7.5s-3.35 7.5-7.5 7.5c-4.14 0-7.5-3.36-7.5-7.5s3.36-7.5 7.5-7.5z"
        opacity="1"
        data-original="#ff5722"></path>
    <path
        fill="#3f4751"
        d="M205 422.5H105a5 5 0 1 1 0-10h100a5 5 0 1 1 0 10z"
        opacity="1"
        data-original="#3f4751"></path>
    <path
        fill="#bce4ff"
        d="M420 422.5H265c-2.762 0-5-2.238-5-5s2.238-5 5-5h155c2.762 0 5 2.238 5 5s-2.238 5-5 5zM420 402.5H265c-2.762 0-5-2.238-5-5s2.238-5 5-5h155c2.762 0 5 2.238 5 5s-2.238 5-5 5zM420 382.5H265c-2.762 0-5-2.238-5-5s2.238-5 5-5h155c2.762 0 5 2.238 5 5s-2.238 5-5 5zM420 362.5H265c-2.762 0-5-2.238-5-5s2.238-5 5-5h155c2.762 0 5 2.238 5 5s-2.238 5-5 5zM370 342.5H265c-2.762 0-5-2.238-5-5s2.238-5 5-5h105c2.762 0 5 2.238 5 5s-2.238 5-5 5z"
        opacity="1"
        data-original="#bce4ff"></path>
    <path
        fill="#cd2738"
        d="m350 113.5-49 105-21 45h-40l20-42.86 50-107.14z"
        opacity="1"
        data-original="#cd2738"></path>
    <path
        fill="#b7bbbc"
        d="M295 268.5h-70a5 5 0 1 1 0-10h70c2.762 0 5 2.238 5 5s-2.238 5-5 5z"
        opacity="1"
        data-original="#b7bbbc"></path>
    <g fill="#079cff">
        <path
        d="M187.9 377.17a5 5 0 1 0-10 0v20.33h10zM133.69 377.17a5 5 0 1 0-10 0v20.33h10z"
        fill="#079cff"
        opacity="1"
        data-original="#079cff"></path>
    </g>
    <path
        fill="#ecf0f1"
        d="M101 222.5c-19.88 0-36 16.12-36 36v173c0 19.88 16.12 36 36 36h318c19.891 0 36-16.12 36-36v-173c0-19.88-16.109-36-36-36z"
        opacity="1"
        data-original="#ecf0f1"></path>
    <path
        fill="#d7e816"
        d="M432.5 92.5c15.19 0 27.5 12.31 27.5 27.5s-12.31 27.5-27.5 27.5c-15.18 0-27.5-12.31-27.5-27.5s12.32-27.5 27.5-27.5zM90 132.5c11.05 0 20 8.95 20 20s-8.95 20-20 20c-11.04 0-20-8.95-20-20s8.96-20 20-20z"
        opacity="1"
        data-original="#d7e816"></path>
    <path
        fill="#163eb1"
        d="m155.79 322.96 13.56 37.86-13.56 13.56-13.55-13.56z"
        opacity="1"
        data-original="#163eb1"></path>
    <path
        fill="#5cbeff"
        d="M155.79 322.96c29.94 0 54.21 24.271 54.21 54.21 0 7.191-1.41 14.05-3.95 20.33H105.54a54.103 54.103 0 0 1-3.96-20.33c0-29.94 24.27-54.21 54.21-54.21l-13.55 37.86 13.55 13.56 13.56-13.56z"
        opacity="1"
        data-original="#5cbeff"></path>
    <path
        fill="#ffd5ab"
        d="M155.79 268.75c14.97 0 27.11 12.14 27.11 27.11s-12.14 27.1-27.11 27.1-27.1-12.13-27.1-27.1 12.13-27.11 27.1-27.11z"
        opacity="1"
        data-original="#ffd5ab"></path>
    <path
        fill="#d94556"
        d="m211 113.5 50 107.14-20 42.86-21-45-49-105z"
        opacity="1"
        data-original="#d94556"></path>
    <path
        fill="#ff5722"
        d="M477.5 282.5c4.15 0 7.5 3.36 7.5 7.5s-3.35 7.5-7.5 7.5c-4.14 0-7.5-3.36-7.5-7.5s3.36-7.5 7.5-7.5zM457.5 167.5c4.15 0 7.5 3.36 7.5 7.5s-3.35 7.5-7.5 7.5c-4.14 0-7.5-3.36-7.5-7.5s3.36-7.5 7.5-7.5zM357.5 67.5c4.15 0 7.5 3.36 7.5 7.5s-3.35 7.5-7.5 7.5c-4.14 0-7.5-3.36-7.5-7.5s3.36-7.5 7.5-7.5zM352.5 182.5c4.15 0 7.5 3.36 7.5 7.5s-3.35 7.5-7.5 7.5c-4.14 0-7.5-3.36-7.5-7.5s3.36-7.5 7.5-7.5z"
        opacity="1"
        data-original="#ff5722"></path>
    <g fill="#079cff">
        <circle
        cx="250"
        cy="337.5"
        r="5"
        fill="#079cff"
        opacity="1"
        data-original="#079cff"></circle>
        <circle
        cx="250"
        cy="357.5"
        r="5"
        fill="#079cff"
        opacity="1"
        data-original="#079cff"></circle>
        <circle
        cx="250"
        cy="377.5"
        r="5"
        fill="#079cff"
        opacity="1"
        data-original="#079cff"></circle>
        <circle
        cx="250"
        cy="397.5"
        r="5"
        fill="#079cff"
        opacity="1"
        data-original="#079cff"></circle>
        <circle
        cx="250"
        cy="417.5"
        r="5"
        fill="#079cff"
        opacity="1"
        data-original="#079cff"></circle>
    </g>
    <path
        fill="#ff5722"
        d="M207.5 52.5c4.15 0 7.5 3.36 7.5 7.5s-3.35 7.5-7.5 7.5c-4.14 0-7.5-3.36-7.5-7.5s3.36-7.5 7.5-7.5zM152.5 172.5c4.15 0 7.5 3.36 7.5 7.5s-3.35 7.5-7.5 7.5c-4.14 0-7.5-3.36-7.5-7.5s3.36-7.5 7.5-7.5zM112.5 82.5c4.15 0 7.5 3.36 7.5 7.5s-3.35 7.5-7.5 7.5c-4.14 0-7.5-3.36-7.5-7.5s3.36-7.5 7.5-7.5zM42.5 207.5c4.15 0 7.5 3.36 7.5 7.5s-3.35 7.5-7.5 7.5c-4.14 0-7.5-3.36-7.5-7.5s3.36-7.5 7.5-7.5z"
        opacity="1"
        data-original="#ff5722"></path>
    <path
        fill="#3f4751"
        d="M205 422.5H105a5 5 0 1 1 0-10h100a5 5 0 1 1 0 10z"
        opacity="1"
        data-original="#3f4751"></path>
    <path
        fill="#bce4ff"
        d="M420 422.5H265c-2.762 0-5-2.238-5-5s2.238-5 5-5h155c2.762 0 5 2.238 5 5s-2.238 5-5 5zM420 402.5H265c-2.762 0-5-2.238-5-5s2.238-5 5-5h155c2.762 0 5 2.238 5 5s-2.238 5-5 5zM420 382.5H265c-2.762 0-5-2.238-5-5s2.238-5 5-5h155c2.762 0 5 2.238 5 5s-2.238 5-5 5zM420 362.5H265c-2.762 0-5-2.238-5-5s2.238-5 5-5h155c2.762 0 5 2.238 5 5s-2.238 5-5 5zM370 342.5H265c-2.762 0-5-2.238-5-5s2.238-5 5-5h105c2.762 0 5 2.238 5 5s-2.238 5-5 5z"
        opacity="1"
        data-original="#bce4ff"></path>
    <path
        fill="#cd2738"
        d="m350 113.5-49 105-21 45h-40l20-42.86 50-107.14z"
        opacity="1"
        data-original="#cd2738"></path>
    <path
        fill="#b7bbbc"
        d="M295 268.5h-70a5 5 0 1 1 0-10h70c2.762 0 5 2.238 5 5s-2.238 5-5 5z"
        opacity="1"
        data-original="#b7bbbc"></path>
    <g fill="#079cff">
        <path
        d="M187.9 377.17a5 5 0 1 0-10 0v20.33h10zM133.69 377.17a5 5 0 1 0-10 0v20.33h10z"
        fill="#079cff"
        opacity="1"
        data-original="#079cff"></path>
    </g>
    </g>
</svg>