<svg
    xmlns="http://www.w3.org/2000/svg"
    version="1.1"
    width="164"
    height="164"
    x="0"
    y="0"
    viewBox="0 0 520 520"
    className="mb-4">
    <g>
    <path
        fill="#ffd400"
        d="M457.5 51.995c15.19 0 27.5 12.31 27.5 27.5s-12.31 27.5-27.5 27.5c-15.18 0-27.5-12.31-27.5-27.5s12.32-27.5 27.5-27.5zM90 261.995c11.05 0 20 8.95 20 20s-8.95 20-20 20c-11.04 0-20-8.95-20-20s8.96-20 20-20z"
        opacity="1"
        data-original="#ffd400"></path>
    <path
        fill="#ff5722"
        d="M300 101.995c-52.46 0-95 42.53-95 95s42.54 95 95 95c52.471 0 95-42.53 95-95s-42.529-95-95-95z"
        opacity="1"
        data-original="#ff5722"></path>
    <path
        fill="#3256c1"
        d="m167.6 452.115-15.94 35.89-79.33-35.279 16.37-36.881z"
        opacity="1"
        data-original="#3256c1"></path>
    <path
        fill="#ffd5ab"
        d="M433.91 345.785c0 3.86-.811 7.87-2.59 11.87a28.881 28.881 0 0 1-14.439 14.55l-100.391 45.51a118.126 118.126 0 0 1-96.81.351c-17.04-7.58-37 .09-44.57 17.13l-7.51 16.92-78.9-36.271 10.6-23.869c25.12-56.471 91.26-81.891 147.73-56.77l7.93 3.53a118.165 118.165 0 0 0 96.809-.351l41.291-18.72c20.17-9.14 40.85 6.58 40.85 26.12z"
        opacity="1"
        data-original="#ffd5ab"></path>
    <g fill="#d94556">
        <path
        d="M462.5 426.995c4.15 0 7.5 3.36 7.5 7.5s-3.35 7.5-7.5 7.5c-4.14 0-7.5-3.36-7.5-7.5s3.36-7.5 7.5-7.5zM422.5 256.995c4.15 0 7.5 3.36 7.5 7.5s-3.35 7.5-7.5 7.5c-4.14 0-7.5-3.36-7.5-7.5s3.36-7.5 7.5-7.5zM397.5 31.995c4.15 0 7.5 3.36 7.5 7.5s-3.35 7.5-7.5 7.5c-4.14 0-7.5-3.36-7.5-7.5s3.36-7.5 7.5-7.5zM282.5 446.995c4.15 0 7.5 3.36 7.5 7.5s-3.35 7.5-7.5 7.5c-4.14 0-7.5-3.36-7.5-7.5s3.36-7.5 7.5-7.5z"
        fill="#d94556"
        opacity="1"
        data-original="#d94556"></path>
    </g>
    <path
        fill="#ffffff"
        d="M277.84 148.115c-20.773 8.443-31.18 27.313-31.18 48.8 0 20.894 10.114 40.181 29.58 48.79 6.24 2.75 13.29 4.13 21.15 4.13 5.619 0 10.369-.62 14.24-1.86 3.879-1.23 7.949-2.75 12.219-4.55l3.041 9.95c-32.793 15.565-72.037 4.001-86.21-30.59-6.362-15.48-6.688-37.232.5-53.09 6.958-15.351 18.962-26.054 34.81-31.69 21.805-7.737 50.024-5.083 68.68 11.8 5.9 5.34 10.61 12.05 14.15 20.14 3.77 8.613 6.025 19.885 5.061 34.55-.364 5.532-1.508 11.477-3.621 17.19-1.129 3.04-2.67 5.79-4.64 8.26-1.96 2.47-4.44 4.47-7.41 5.98-2.979 1.52-6.55 2.28-10.71 2.28-3.598 0-6.68-.535-9.83-2.3-2.801-1.579-4.599-3.774-5.59-6.3-.62-1.57-1.04-3.09-1.26-4.55-7.56 7.561-18.226 11.13-28.65 11.13-8.43 0-14.859-2.22-19.3-6.66-4.44-4.44-6.66-10.2-6.66-17.28 0-4.72.931-8.7 2.78-11.96 1.859-3.26 4.24-5.87 7.17-7.84 2.983-1.979 6.238-3.374 10.02-4.21 8.383-1.89 17.307-1.496 22.761 0 3.09.84 5.42 1.6 6.989 2.27 0-2.7-.279-5.17-.84-7.41-2.102-8.298-9.396-10.79-17.869-10.79-9.74 0-16.945 2.937-21.91 7.25l-4.721-13.99c8.32-5.62 18.09-8.43 29.33-8.43 7.641 0 13.59 1.15 17.86 3.46 4.27 2.3 7.45 5.19 9.53 8.68 2.08 3.48 3.34 7.33 3.789 11.54 1.264 11.818.297 21.15.841 33.03.173 3.802.911 8.19 3.54 10.96 1.119 1.18 2.64 1.77 4.55 1.77 2.809 0 5.11-1.1 6.91-3.29s3.149-4.83 4.05-7.92c.9-3.09 1.51-6.29 1.85-9.61.34-3.31.51-6.03.51-8.17 0-21.82-10.728-40.875-31.689-49.38-13.24-5.392-30.665-5.417-43.821-.09zm37.92 61.27v-6.74c-1.569-.56-4.02-1.24-7.33-2.03-3.31-.78-6.819-1.18-10.529-1.18-5.061 0-8.96.99-11.721 2.95-2.75 1.97-4.129 5.14-4.129 9.53 0 3.59 1.02 6.35 3.039 8.25 3.879 3.686 10.51 3.121 15.76 2.11 2.641-.5 5.021-1.32 7.16-2.44 2.36-1.12 4.24-2.59 5.65-4.38 1.4-1.8 2.1-3.82 2.1-6.07z"
        opacity="1"
        data-original="#ffffff"></path>
    <path
        fill="#d94556"
        d="M162.5 31.995c4.15 0 7.5 3.36 7.5 7.5s-3.35 7.5-7.5 7.5c-4.14 0-7.5-3.36-7.5-7.5s3.36-7.5 7.5-7.5zM152.5 246.995c4.15 0 7.5 3.36 7.5 7.5s-3.35 7.5-7.5 7.5c-4.14 0-7.5-3.36-7.5-7.5s3.36-7.5 7.5-7.5zM87.5 116.995c4.15 0 7.5 3.36 7.5 7.5s-3.35 7.5-7.5 7.5c-4.14 0-7.5-3.36-7.5-7.5s3.36-7.5 7.5-7.5zM62.5 351.995c4.15 0 7.5 3.36 7.5 7.5s-3.35 7.5-7.5 7.5c-4.14 0-7.5-3.36-7.5-7.5s3.36-7.5 7.5-7.5z"
        opacity="1"
        data-original="#d94556"></path>
    <path
        fill="#bce4ff"
        d="M480 201.995h-60a5 5 0 0 1-5-5c0-63.411-51.589-115-115-115s-115 51.589-115 115a5 5 0 0 1-5 5H40a5 5 0 0 1 0-10h135.099c2.633-66.617 57.65-120 124.901-120s122.268 53.383 124.901 120H480a5 5 0 1 1 0 10z"
        opacity="1"
        data-original="#bce4ff"></path>
    <path
        fill="#ffd400"
        d="M457.5 51.995c15.19 0 27.5 12.31 27.5 27.5s-12.31 27.5-27.5 27.5c-15.18 0-27.5-12.31-27.5-27.5s12.32-27.5 27.5-27.5zM90 261.995c11.05 0 20 8.95 20 20s-8.95 20-20 20c-11.04 0-20-8.95-20-20s8.96-20 20-20z"
        opacity="1"
        data-original="#ffd400"></path>
    <path
        fill="#ff5722"
        d="M300 101.995c-52.46 0-95 42.53-95 95s42.54 95 95 95c52.471 0 95-42.53 95-95s-42.529-95-95-95z"
        opacity="1"
        data-original="#ff5722"></path>
    <path
        fill="#3256c1"
        d="m167.6 452.115-15.94 35.89-79.33-35.279 16.37-36.881z"
        opacity="1"
        data-original="#3256c1"></path>
    <path
        fill="#ffd5ab"
        d="M433.91 345.785c0 3.86-.811 7.87-2.59 11.87a28.881 28.881 0 0 1-14.439 14.55l-100.391 45.51a118.126 118.126 0 0 1-96.81.351c-17.04-7.58-37 .09-44.57 17.13l-7.51 16.92-78.9-36.271 10.6-23.869c25.12-56.471 91.26-81.891 147.73-56.77l7.93 3.53a118.165 118.165 0 0 0 96.809-.351l41.291-18.72c20.17-9.14 40.85 6.58 40.85 26.12z"
        opacity="1"
        data-original="#ffd5ab"></path>
    <g fill="#d94556">
        <path
        d="M462.5 426.995c4.15 0 7.5 3.36 7.5 7.5s-3.35 7.5-7.5 7.5c-4.14 0-7.5-3.36-7.5-7.5s3.36-7.5 7.5-7.5zM422.5 256.995c4.15 0 7.5 3.36 7.5 7.5s-3.35 7.5-7.5 7.5c-4.14 0-7.5-3.36-7.5-7.5s3.36-7.5 7.5-7.5zM397.5 31.995c4.15 0 7.5 3.36 7.5 7.5s-3.35 7.5-7.5 7.5c-4.14 0-7.5-3.36-7.5-7.5s3.36-7.5 7.5-7.5zM282.5 446.995c4.15 0 7.5 3.36 7.5 7.5s-3.35 7.5-7.5 7.5c-4.14 0-7.5-3.36-7.5-7.5s3.36-7.5 7.5-7.5z"
        fill="#d94556"
        opacity="1"
        data-original="#d94556"></path>
    </g>
    <path
        fill="#ffffff"
        d="M277.84 148.115c-20.773 8.443-31.18 27.313-31.18 48.8 0 20.894 10.114 40.181 29.58 48.79 6.24 2.75 13.29 4.13 21.15 4.13 5.619 0 10.369-.62 14.24-1.86 3.879-1.23 7.949-2.75 12.219-4.55l3.041 9.95c-32.793 15.565-72.037 4.001-86.21-30.59-6.362-15.48-6.688-37.232.5-53.09 6.958-15.351 18.962-26.054 34.81-31.69 21.805-7.737 50.024-5.083 68.68 11.8 5.9 5.34 10.61 12.05 14.15 20.14 3.77 8.613 6.025 19.885 5.061 34.55-.364 5.532-1.508 11.477-3.621 17.19-1.129 3.04-2.67 5.79-4.64 8.26-1.96 2.47-4.44 4.47-7.41 5.98-2.979 1.52-6.55 2.28-10.71 2.28-3.598 0-6.68-.535-9.83-2.3-2.801-1.579-4.599-3.774-5.59-6.3-.62-1.57-1.04-3.09-1.26-4.55-7.56 7.561-18.226 11.13-28.65 11.13-8.43 0-14.859-2.22-19.3-6.66-4.44-4.44-6.66-10.2-6.66-17.28 0-4.72.931-8.7 2.78-11.96 1.859-3.26 4.24-5.87 7.17-7.84 2.983-1.979 6.238-3.374 10.02-4.21 8.383-1.89 17.307-1.496 22.761 0 3.09.84 5.42 1.6 6.989 2.27 0-2.7-.279-5.17-.84-7.41-2.102-8.298-9.396-10.79-17.869-10.79-9.74 0-16.945 2.937-21.91 7.25l-4.721-13.99c8.32-5.62 18.09-8.43 29.33-8.43 7.641 0 13.59 1.15 17.86 3.46 4.27 2.3 7.45 5.19 9.53 8.68 2.08 3.48 3.34 7.33 3.789 11.54 1.264 11.818.297 21.15.841 33.03.173 3.802.911 8.19 3.54 10.96 1.119 1.18 2.64 1.77 4.55 1.77 2.809 0 5.11-1.1 6.91-3.29s3.149-4.83 4.05-7.92c.9-3.09 1.51-6.29 1.85-9.61.34-3.31.51-6.03.51-8.17 0-21.82-10.728-40.875-31.689-49.38-13.24-5.392-30.665-5.417-43.821-.09zm37.92 61.27v-6.74c-1.569-.56-4.02-1.24-7.33-2.03-3.31-.78-6.819-1.18-10.529-1.18-5.061 0-8.96.99-11.721 2.95-2.75 1.97-4.129 5.14-4.129 9.53 0 3.59 1.02 6.35 3.039 8.25 3.879 3.686 10.51 3.121 15.76 2.11 2.641-.5 5.021-1.32 7.16-2.44 2.36-1.12 4.24-2.59 5.65-4.38 1.4-1.8 2.1-3.82 2.1-6.07z"
        opacity="1"
        data-original="#ffffff"></path>
    <path
        fill="#d94556"
        d="M162.5 31.995c4.15 0 7.5 3.36 7.5 7.5s-3.35 7.5-7.5 7.5c-4.14 0-7.5-3.36-7.5-7.5s3.36-7.5 7.5-7.5zM152.5 246.995c4.15 0 7.5 3.36 7.5 7.5s-3.35 7.5-7.5 7.5c-4.14 0-7.5-3.36-7.5-7.5s3.36-7.5 7.5-7.5zM87.5 116.995c4.15 0 7.5 3.36 7.5 7.5s-3.35 7.5-7.5 7.5c-4.14 0-7.5-3.36-7.5-7.5s3.36-7.5 7.5-7.5zM62.5 351.995c4.15 0 7.5 3.36 7.5 7.5s-3.35 7.5-7.5 7.5c-4.14 0-7.5-3.36-7.5-7.5s3.36-7.5 7.5-7.5z"
        opacity="1"
        data-original="#d94556"></path>
    <path
        fill="#bce4ff"
        d="M480 201.995h-60a5 5 0 0 1-5-5c0-63.411-51.589-115-115-115s-115 51.589-115 115a5 5 0 0 1-5 5H40a5 5 0 0 1 0-10h135.099c2.633-66.617 57.65-120 124.901-120s122.268 53.383 124.901 120H480a5 5 0 1 1 0 10z"
        opacity="1"
        data-original="#bce4ff"></path>
    </g>
</svg>