
<svg
    xmlns="http://www.w3.org/2000/svg"
    version="1.1"
    width="164"
    height="164"
    x="0"
    y="0"
    viewBox="0 0 520 520">
    <g>
    <path
        fill="#07cc66"
        d="M257.5 67.501c-107.69 0-195 87.3-195 194.999 0 107.701 87.31 195 195 195 107.7 0 195-87.299 195-195 0-107.7-87.3-194.999-195-194.999z"
        opacity="1"
        data-original="#07cc66"></path>
    <path
        fill="#ecf0f1"
        d="M257.5 112.501c-82.84 0-150 67.16-150 149.999 0 82.84 67.16 150 150 150 82.85 0 150-67.16 150-150 0-82.839-67.15-149.999-150-149.999z"
        opacity="1"
        data-original="#ecf0f1"></path>
    <path
        fill="#d7e816"
        d="M72.5 412.5c13.81 0 25 11.191 25 25 0 13.81-11.19 25-25 25-13.8 0-25-11.19-25-25 0-13.809 11.2-25 25-25z"
        opacity="1"
        data-original="#d7e816"></path>
    <circle
        cx="445"
        cy="85.001"
        r="32.5"
        fill="#d7e816"
        opacity="1"
        data-original="#d7e816"></circle>
    <g fill="#d94556">
        <path
        d="M197.4 322.6a10.005 10.005 0 0 1 2.92 7.08c0 2.561-.97 5.121-2.92 7.07l-17.68 17.67c-3.9 3.91-10.23 3.91-14.14 0-3.91-3.9-3.91-10.228 0-14.139l17.68-17.682c3.9-3.898 10.23-3.898 14.14.001zM162.5 252.501c5.53 0 10 4.48 10 9.999 0 2.76-1.12 5.26-2.93 7.07a9.965 9.965 0 0 1-7.07 2.93h-25c-5.52 0-10-4.48-10-10s4.48-9.999 10-9.999zM197.4 188.251c3.9 3.91 3.9 10.24 0 14.15-3.91 3.9-10.24 3.9-14.14 0l-17.68-17.68c-3.91-3.91-3.91-10.24 0-14.14a9.965 9.965 0 0 1 7.07-2.93c2.56 0 5.12.97 7.07 2.93zM267.5 357.5v25c0 5.52-4.47 10-10 10-5.52 0-10-4.48-10-10v-25c0-5.52 4.48-10 10-10 2.76 0 5.26 1.121 7.07 2.93a9.965 9.965 0 0 1 2.93 7.07zM349.43 340.281c3.9 3.91 3.9 10.238 0 14.139-3.91 3.91-10.239 3.91-14.14 0l-17.68-17.67a10 10 0 0 1 0-14.15 9.966 9.966 0 0 1 7.069-2.92c2.561 0 5.121.971 7.07 2.92zM377.5 252.501c5.53 0 10 4.48 10 9.999 0 2.76-1.119 5.26-2.93 7.07a9.965 9.965 0 0 1-7.07 2.93h-25c-5.52 0-10-4.48-10-10s4.48-9.999 10-9.999zM349.43 170.581a9.97 9.97 0 0 1 2.931 7.07 10 10 0 0 1-2.931 7.07l-17.68 17.68c-3.91 3.9-10.24 3.9-14.14 0a10 10 0 0 1 0-14.15l17.68-17.67c3.9-3.911 10.23-3.911 14.14 0zM267.5 142.501v25c0 5.52-4.47 10-10 10-5.52 0-10-4.48-10-10v-25c0-5.52 4.48-10 10-10 2.76 0 5.26 1.12 7.07 2.93a9.965 9.965 0 0 1 2.93 7.07z"
        fill="#d94556"
        opacity="1"
        data-original="#d94556"></path>
    </g>
    <path
        fill="#ff5722"
        d="M470 362.5c4.15 0 7.5 3.361 7.5 7.5 0 4.141-3.35 7.5-7.5 7.5-4.14 0-7.5-3.359-7.5-7.5 0-4.139 3.36-7.5 7.5-7.5zM465 157.501c4.15 0 7.5 3.36 7.5 7.5s-3.35 7.5-7.5 7.5c-4.14 0-7.5-3.36-7.5-7.5 0-4.141 3.36-7.5 7.5-7.5zM390 447.5c4.15 0 7.5 3.361 7.5 7.5 0 4.141-3.35 7.5-7.5 7.5-4.14 0-7.5-3.359-7.5-7.5 0-4.139 3.36-7.5 7.5-7.5zM370.41 42.51c4.13.22 7.3 3.76 7.08 7.89a7.497 7.497 0 0 1-7.891 7.09c-4.129-.22-7.31-3.76-7.09-7.89a7.514 7.514 0 0 1 7.901-7.09zM190 42.5c4.15 0 7.5 3.36 7.5 7.5s-3.35 7.5-7.5 7.5c-4.14 0-7.5-3.36-7.5-7.5s3.36-7.5 7.5-7.5zM155 462.5c4.15 0 7.5 3.361 7.5 7.5 0 4.141-3.35 7.5-7.5 7.5-4.14 0-7.5-3.359-7.5-7.5 0-4.139 3.36-7.5 7.5-7.5zM75 92.501c4.15 0 7.5 3.36 7.5 7.5s-3.35 7.5-7.5 7.5c-4.14 0-7.5-3.36-7.5-7.5 0-4.141 3.36-7.5 7.5-7.5zM50 332.5c4.15 0 7.5 3.361 7.5 7.5 0 4.141-3.35 7.5-7.5 7.5-4.14 0-7.5-3.359-7.5-7.5 0-4.139 3.36-7.5 7.5-7.5z"
        opacity="1"
        data-original="#ff5722"></path>
    <path
        fill="#3f4751"
        d="M268.11 256.891a5.001 5.001 0 0 1-3.536-8.535l34.391-34.39a5 5 0 0 1 7.07 7.071l-34.389 34.39a4.988 4.988 0 0 1-3.536 1.464z"
        opacity="1"
        data-original="#3f4751"></path>
    <path
        fill="#22262b"
        d="M237.5 287.5a4.98 4.98 0 0 1-3.538-1.467 4.998 4.998 0 0 1 .004-7.07l9.4-9.389a5 5 0 1 1 7.067 7.074l-9.4 9.389a4.975 4.975 0 0 1-3.533 1.463z"
        opacity="1"
        data-original="#22262b"></path>
    <path
        fill="#163eb1"
        d="M268.11 251.891c5.86 5.859 5.86 15.359 0 21.221-5.86 5.85-15.35 5.85-21.21 0-5.86-5.861-5.86-15.361 0-21.221 5.86-5.851 15.35-5.851 21.21 0z"
        opacity="1"
        data-original="#163eb1"></path>
    <path
        fill="#07cc66"
        d="M257.5 67.501c-107.69 0-195 87.3-195 194.999 0 107.701 87.31 195 195 195 107.7 0 195-87.299 195-195 0-107.7-87.3-194.999-195-194.999z"
        opacity="1"
        data-original="#07cc66"></path>
    <path
        fill="#ecf0f1"
        d="M257.5 112.501c-82.84 0-150 67.16-150 149.999 0 82.84 67.16 150 150 150 82.85 0 150-67.16 150-150 0-82.839-67.15-149.999-150-149.999z"
        opacity="1"
        data-original="#ecf0f1"></path>
    <path
        fill="#d7e816"
        d="M72.5 412.5c13.81 0 25 11.191 25 25 0 13.81-11.19 25-25 25-13.8 0-25-11.19-25-25 0-13.809 11.2-25 25-25z"
        opacity="1"
        data-original="#d7e816"></path>
    <circle
        cx="445"
        cy="85.001"
        r="32.5"
        fill="#d7e816"
        opacity="1"
        data-original="#d7e816"></circle>
    <g fill="#d94556">
        <path
        d="M197.4 322.6a10.005 10.005 0 0 1 2.92 7.08c0 2.561-.97 5.121-2.92 7.07l-17.68 17.67c-3.9 3.91-10.23 3.91-14.14 0-3.91-3.9-3.91-10.228 0-14.139l17.68-17.682c3.9-3.898 10.23-3.898 14.14.001zM162.5 252.501c5.53 0 10 4.48 10 9.999 0 2.76-1.12 5.26-2.93 7.07a9.965 9.965 0 0 1-7.07 2.93h-25c-5.52 0-10-4.48-10-10s4.48-9.999 10-9.999zM197.4 188.251c3.9 3.91 3.9 10.24 0 14.15-3.91 3.9-10.24 3.9-14.14 0l-17.68-17.68c-3.91-3.91-3.91-10.24 0-14.14a9.965 9.965 0 0 1 7.07-2.93c2.56 0 5.12.97 7.07 2.93zM267.5 357.5v25c0 5.52-4.47 10-10 10-5.52 0-10-4.48-10-10v-25c0-5.52 4.48-10 10-10 2.76 0 5.26 1.121 7.07 2.93a9.965 9.965 0 0 1 2.93 7.07zM349.43 340.281c3.9 3.91 3.9 10.238 0 14.139-3.91 3.91-10.239 3.91-14.14 0l-17.68-17.67a10 10 0 0 1 0-14.15 9.966 9.966 0 0 1 7.069-2.92c2.561 0 5.121.971 7.07 2.92zM377.5 252.501c5.53 0 10 4.48 10 9.999 0 2.76-1.119 5.26-2.93 7.07a9.965 9.965 0 0 1-7.07 2.93h-25c-5.52 0-10-4.48-10-10s4.48-9.999 10-9.999zM349.43 170.581a9.97 9.97 0 0 1 2.931 7.07 10 10 0 0 1-2.931 7.07l-17.68 17.68c-3.91 3.9-10.24 3.9-14.14 0a10 10 0 0 1 0-14.15l17.68-17.67c3.9-3.911 10.23-3.911 14.14 0zM267.5 142.501v25c0 5.52-4.47 10-10 10-5.52 0-10-4.48-10-10v-25c0-5.52 4.48-10 10-10 2.76 0 5.26 1.12 7.07 2.93a9.965 9.965 0 0 1 2.93 7.07z"
        fill="#d94556"
        opacity="1"
        data-original="#d94556"></path>
    </g>
    <path
        fill="#ff5722"
        d="M470 362.5c4.15 0 7.5 3.361 7.5 7.5 0 4.141-3.35 7.5-7.5 7.5-4.14 0-7.5-3.359-7.5-7.5 0-4.139 3.36-7.5 7.5-7.5zM465 157.501c4.15 0 7.5 3.36 7.5 7.5s-3.35 7.5-7.5 7.5c-4.14 0-7.5-3.36-7.5-7.5 0-4.141 3.36-7.5 7.5-7.5zM390 447.5c4.15 0 7.5 3.361 7.5 7.5 0 4.141-3.35 7.5-7.5 7.5-4.14 0-7.5-3.359-7.5-7.5 0-4.139 3.36-7.5 7.5-7.5zM370.41 42.51c4.13.22 7.3 3.76 7.08 7.89a7.497 7.497 0 0 1-7.891 7.09c-4.129-.22-7.31-3.76-7.09-7.89a7.514 7.514 0 0 1 7.901-7.09zM190 42.5c4.15 0 7.5 3.36 7.5 7.5s-3.35 7.5-7.5 7.5c-4.14 0-7.5-3.36-7.5-7.5s3.36-7.5 7.5-7.5zM155 462.5c4.15 0 7.5 3.361 7.5 7.5 0 4.141-3.35 7.5-7.5 7.5-4.14 0-7.5-3.359-7.5-7.5 0-4.139 3.36-7.5 7.5-7.5zM75 92.501c4.15 0 7.5 3.36 7.5 7.5s-3.35 7.5-7.5 7.5c-4.14 0-7.5-3.36-7.5-7.5 0-4.141 3.36-7.5 7.5-7.5zM50 332.5c4.15 0 7.5 3.361 7.5 7.5 0 4.141-3.35 7.5-7.5 7.5-4.14 0-7.5-3.359-7.5-7.5 0-4.139 3.36-7.5 7.5-7.5z"
        opacity="1"
        data-original="#ff5722"></path>
    <path
        fill="#3f4751"
        d="M268.11 256.891a5.001 5.001 0 0 1-3.536-8.535l34.391-34.39a5 5 0 0 1 7.07 7.071l-34.389 34.39a4.988 4.988 0 0 1-3.536 1.464z"
        opacity="1"
        data-original="#3f4751"></path>
    <path
        fill="#22262b"
        d="M237.5 287.5a4.98 4.98 0 0 1-3.538-1.467 4.998 4.998 0 0 1 .004-7.07l9.4-9.389a5 5 0 1 1 7.067 7.074l-9.4 9.389a4.975 4.975 0 0 1-3.533 1.463z"
        opacity="1"
        data-original="#22262b"></path>
    <path
        fill="#163eb1"
        d="M268.11 251.891c5.86 5.859 5.86 15.359 0 21.221-5.86 5.85-15.35 5.85-21.21 0-5.86-5.861-5.86-15.361 0-21.221 5.86-5.851 15.35-5.851 21.21 0z"
        opacity="1"
        data-original="#163eb1"></path>
    </g>
</svg>