<svg
    xmlns="http://www.w3.org/2000/svg"
    version="1.1"
    width="164"
    height="164"
    x="0"
    y="0"
    viewBox="0 0 520 520">
    <g>
    <path
        fill="#d7deed"
        d="M256.997 468.003c-115.795 0-210-94.206-210-210 0-56.253 21.8-109.033 61.383-148.617s92.363-61.383 148.617-61.383c115.794 0 210 94.206 210 210 0 44.232-13.593 86.545-39.308 122.366-11.518 16.034-31.09 22.494-49.864 16.445-18.728-6.028-30.828-22.645-30.828-42.331v-3.631a5 5 0 1 1 10 0v3.631c0 18.522 12.343 29.094 23.892 32.813 14.56 4.688 29.742-.32 38.677-12.76 24.487-34.11 37.431-74.407 37.431-116.533 0-110.28-89.72-200-200-200s-200 89.72-200 200 89.72 200 200 200a5 5 0 1 1 0 10z"
        opacity="1"
        data-original="#d7deed"></path>
    <path
        fill="#4a78ff"
        d="M356.657 286.143c-17.756-17.774-46.63-17.799-64.41 0l-2.3 2.301-80.51-80.51v-.01l2.3-2.3c17.78-17.79 17.78-46.62 0-64.41-17.777-17.758-46.585-17.815-64.42 0l-2.3 2.3c-22.87 22.87-22.87 59.95 0 82.81l126.53 126.53c22.824 22.826 59.885 22.908 82.81 0l2.3-2.3c17.79-17.791 17.79-46.631 0-64.411z"
        opacity="1"
        data-original="#4a78ff"></path>
    <path
        fill="#2663f0"
        d="M356.657 286.143c17.79 17.78 17.79 46.62 0 64.41l-2.3 2.3-64.41-64.409 2.3-2.301c8.89-8.899 20.55-13.34 32.21-13.34s23.311 4.44 32.2 13.34zM211.737 141.213c17.78 17.79 17.78 46.62 0 64.41l-2.3 2.3v.01l-64.42-64.42 2.3-2.3c8.9-8.89 20.55-13.34 32.21-13.34 11.661 0 23.31 4.45 32.21 13.34z"
        opacity="1"
        data-original="#2663f0"></path>
    <path
        fill="#ff5722"
        d="M69.997 435.003c11.05 0 20 8.95 20 20s-8.95 20-20 20c-11.04 0-20-8.95-20-20s8.96-20 20-20zM434.997 415.003c16.57 0 30 13.43 30 30s-13.43 30-30 30c-16.56 0-30-13.43-30-30s13.441-30 30-30zM434.997 50.003c11.05 0 20 8.95 20 20s-8.95 20-20 20c-11.04 0-20-8.95-20-20s8.96-20 20-20z"
        opacity="1"
        data-original="#ff5722"></path>
    <path
        fill="#ffd400"
        d="M479.428 364.613a7.509 7.509 0 0 1-4.03 9.81c-3.82 1.59-8.22-.21-9.81-4.03-1.601-3.819.199-8.22 4.02-9.81 3.83-1.6 8.219.21 9.82 4.03zM469.428 129.613c1.59 3.82-.211 8.22-4.03 9.81-3.82 1.6-8.22-.2-9.81-4.03a7.493 7.493 0 0 1 4.02-9.81c3.83-1.6 8.219.21 9.82 4.03z"
        opacity="1"
        data-original="#ffd400"></path>
    <path
        fill="#d94556"
        d="M355.168 199.323v-14.97c0-4.06.209-8.22.52-12.59h-.41c-2.189 4.37-3.96 8.32-6.24 12.59l-9.05 14.77v.2zm14.979 0h8.11v11.86h-8.11v16.12h-14.979v-16.12h-29.951v-10.3l25.58-41.18h19.351v39.62zM317.418 214.303v13h-47.941v-9.57l8.73-7.9c14.77-13.21 21.95-20.8 22.16-28.71 0-5.51-3.33-9.88-11.13-9.88-5.83 0-10.92 2.91-14.46 5.62l-4.471-11.34c5.101-3.85 13-6.97 22.15-6.97 15.29 0 23.721 8.95 23.721 21.22 0 11.34-8.221 20.39-18 29.12l-6.24 5.2v.21z"
        opacity="1"
        data-original="#d94556"></path>
    <g fill="#ffd400">
        <path
        d="M159.417 469.613c1.6 3.819-.2 8.21-4.03 9.81a7.508 7.508 0 0 1-9.81-4.03 7.496 7.496 0 0 1 4.03-9.81c3.82-1.6 8.22.21 9.81 4.03zM154.417 329.613c1.6 3.819-.2 8.21-4.03 9.81a7.508 7.508 0 0 1-9.81-4.03 7.496 7.496 0 0 1 4.03-9.81c3.82-1.6 8.22.21 9.81 4.03zM114.427 44.613c1.59 3.82-.21 8.21-4.03 9.81s-8.22-.21-9.81-4.03c-1.6-3.82.2-8.22 4.02-9.81 3.831-1.6 8.22.2 9.82 4.03zM54.417 124.613c1.6 3.82-.2 8.21-4.03 9.81-3.82 1.6-8.21-.21-9.81-4.03s.21-8.22 4.03-9.81c3.82-1.6 8.22.2 9.81 4.03z"
        fill="#ffd400"
        opacity="1"
        data-original="#ffd400"></path>
    </g>
    <path
        fill="#2663f0"
        d="M291.737 326.203c-1.28 0-2.56-.488-3.536-1.465l-133.379-133.39a5 5 0 1 1 7.071-7.071l133.38 133.391a5.001 5.001 0 0 1-3.536 8.535z"
        opacity="1"
        data-original="#2663f0"></path>
    <path
        fill="#5cbeff"
        d="M414.997 250.003h-115a5 5 0 0 1 0-10h115a5 5 0 0 1 0 10zM434.997 270.003h-50a5 5 0 1 1 0-10h50a5 5 0 1 1 0 10z"
        opacity="1"
        data-original="#5cbeff"></path>
    <path
        fill="#d7deed"
        d="M256.997 468.003c-115.795 0-210-94.206-210-210 0-56.253 21.8-109.033 61.383-148.617s92.363-61.383 148.617-61.383c115.794 0 210 94.206 210 210 0 44.232-13.593 86.545-39.308 122.366-11.518 16.034-31.09 22.494-49.864 16.445-18.728-6.028-30.828-22.645-30.828-42.331v-3.631a5 5 0 1 1 10 0v3.631c0 18.522 12.343 29.094 23.892 32.813 14.56 4.688 29.742-.32 38.677-12.76 24.487-34.11 37.431-74.407 37.431-116.533 0-110.28-89.72-200-200-200s-200 89.72-200 200 89.72 200 200 200a5 5 0 1 1 0 10z"
        opacity="1"
        data-original="#d7deed"></path>
    <path
        fill="#4a78ff"
        d="M356.657 286.143c-17.756-17.774-46.63-17.799-64.41 0l-2.3 2.301-80.51-80.51v-.01l2.3-2.3c17.78-17.79 17.78-46.62 0-64.41-17.777-17.758-46.585-17.815-64.42 0l-2.3 2.3c-22.87 22.87-22.87 59.95 0 82.81l126.53 126.53c22.824 22.826 59.885 22.908 82.81 0l2.3-2.3c17.79-17.791 17.79-46.631 0-64.411z"
        opacity="1"
        data-original="#4a78ff"></path>
    <path
        fill="#2663f0"
        d="M356.657 286.143c17.79 17.78 17.79 46.62 0 64.41l-2.3 2.3-64.41-64.409 2.3-2.301c8.89-8.899 20.55-13.34 32.21-13.34s23.311 4.44 32.2 13.34zM211.737 141.213c17.78 17.79 17.78 46.62 0 64.41l-2.3 2.3v.01l-64.42-64.42 2.3-2.3c8.9-8.89 20.55-13.34 32.21-13.34 11.661 0 23.31 4.45 32.21 13.34z"
        opacity="1"
        data-original="#2663f0"></path>
    <path
        fill="#ff5722"
        d="M69.997 435.003c11.05 0 20 8.95 20 20s-8.95 20-20 20c-11.04 0-20-8.95-20-20s8.96-20 20-20zM434.997 415.003c16.57 0 30 13.43 30 30s-13.43 30-30 30c-16.56 0-30-13.43-30-30s13.441-30 30-30zM434.997 50.003c11.05 0 20 8.95 20 20s-8.95 20-20 20c-11.04 0-20-8.95-20-20s8.96-20 20-20z"
        opacity="1"
        data-original="#ff5722"></path>
    <path
        fill="#ffd400"
        d="M479.428 364.613a7.509 7.509 0 0 1-4.03 9.81c-3.82 1.59-8.22-.21-9.81-4.03-1.601-3.819.199-8.22 4.02-9.81 3.83-1.6 8.219.21 9.82 4.03zM469.428 129.613c1.59 3.82-.211 8.22-4.03 9.81-3.82 1.6-8.22-.2-9.81-4.03a7.493 7.493 0 0 1 4.02-9.81c3.83-1.6 8.219.21 9.82 4.03z"
        opacity="1"
        data-original="#ffd400"></path>
    <path
        fill="#d94556"
        d="M355.168 199.323v-14.97c0-4.06.209-8.22.52-12.59h-.41c-2.189 4.37-3.96 8.32-6.24 12.59l-9.05 14.77v.2zm14.979 0h8.11v11.86h-8.11v16.12h-14.979v-16.12h-29.951v-10.3l25.58-41.18h19.351v39.62zM317.418 214.303v13h-47.941v-9.57l8.73-7.9c14.77-13.21 21.95-20.8 22.16-28.71 0-5.51-3.33-9.88-11.13-9.88-5.83 0-10.92 2.91-14.46 5.62l-4.471-11.34c5.101-3.85 13-6.97 22.15-6.97 15.29 0 23.721 8.95 23.721 21.22 0 11.34-8.221 20.39-18 29.12l-6.24 5.2v.21z"
        opacity="1"
        data-original="#d94556"></path>
    <g fill="#ffd400">
        <path
        d="M159.417 469.613c1.6 3.819-.2 8.21-4.03 9.81a7.508 7.508 0 0 1-9.81-4.03 7.496 7.496 0 0 1 4.03-9.81c3.82-1.6 8.22.21 9.81 4.03zM154.417 329.613c1.6 3.819-.2 8.21-4.03 9.81a7.508 7.508 0 0 1-9.81-4.03 7.496 7.496 0 0 1 4.03-9.81c3.82-1.6 8.22.21 9.81 4.03zM114.427 44.613c1.59 3.82-.21 8.21-4.03 9.81s-8.22-.21-9.81-4.03c-1.6-3.82.2-8.22 4.02-9.81 3.831-1.6 8.22.2 9.82 4.03zM54.417 124.613c1.6 3.82-.2 8.21-4.03 9.81-3.82 1.6-8.21-.21-9.81-4.03s.21-8.22 4.03-9.81c3.82-1.6 8.22.2 9.81 4.03z"
        fill="#ffd400"
        opacity="1"
        data-original="#ffd400"></path>
    </g>
    <path
        fill="#2663f0"
        d="M291.737 326.203c-1.28 0-2.56-.488-3.536-1.465l-133.379-133.39a5 5 0 1 1 7.071-7.071l133.38 133.391a5.001 5.001 0 0 1-3.536 8.535z"
        opacity="1"
        data-original="#2663f0"></path>
    <path
        fill="#5cbeff"
        d="M414.997 250.003h-115a5 5 0 0 1 0-10h115a5 5 0 0 1 0 10zM434.997 270.003h-50a5 5 0 1 1 0-10h50a5 5 0 1 1 0 10z"
        opacity="1"
        data-original="#5cbeff"></path>
    </g>
</svg>