<svg xmlns="http://www.w3.org/2000/svg" version="1.1" xmlns:xlink="http://www.w3.org/1999/xlink" width="512" height="512" x="0" y="0" viewBox="0 0 512.005 512.005" style="enable-background:new 0 0 512 512" xml:space="preserve" class=""><g><path fill="#5ba7ff" d="M217.3 368.073 88.54 496.823c-10.12 10.1-23.4 15.16-36.68 15.16-13.27 0-26.54-5.05-36.66-15.16l91.8-128.75 95.92-58.97z" opacity="1" data-original="#ff3344" class=""></path><path fill="#3e97ff" d="m202.01 305.363-58.06-10.64-128.76 128.75c-9.8 9.8-15.19 22.82-15.19 36.68s5.39 26.88 15.19 36.67h.01l187.72-187.72z" opacity="1" data-original="#ff5e30" class=""></path><path fill="#15171a" d="m271.84 313.523-54.54 54.55-36.67-36.67 11.734-48.771 52.986-15.959 26.49 26.49c5.61 5.63 5.61 14.73 0 20.36z" opacity="1" data-original="#15171a"></path><path fill="#333940" d="m245.35 266.673-64.72 64.73-36.68-36.68 54.54-54.55c2.7-2.7 6.37-4.21 10.18-4.21s7.48 1.51 10.18 4.21z" opacity="1" data-original="#333940" class=""></path><path fill="#d5dbe6" d="m424.94 108.283-130.72 130.73-10.61-10.6 48.057-60.065 82.673-70.665z" opacity="1" data-original="#d5dbe6" class=""></path><path fill="#ebf0fa" d="m272.957 217.813 130.71-130.71 10.609 10.608-130.71 130.71z" opacity="1" data-original="#ebf0fa"></path><path fill="#bec3d2" d="M512 57.613c0 3.98-1.58 7.8-4.39 10.61l-21.31 21.3c-4.45 4.46-13.69 11.16-42.3 17.8-14.35 3.33-27.04 5.13-27.57 5.21a14.933 14.933 0 0 1-12.69-4.25l39.081-54.134 43.489-28.436 21.3 21.3c2.81 2.81 4.39 6.63 4.39 10.6z" opacity="1" data-original="#bec3d2" class=""></path><path fill="#d5dbe6" d="M465 4.403c-5.85-5.85-15.35-5.85-21.21 0l-21.3 21.31c-4.46 4.46-11.16 13.69-17.8 42.3-3.33 14.35-5.13 27.04-5.21 27.57-.66 4.67.92 9.37 4.25 12.7h.01l82.57-82.57z" opacity="1" data-original="#d5dbe6" class=""></path><path fill="#bec3d2" d="M512 469.863c.18 11.33-4.15 22.02-12.14 30.01L185 210.328 99.97 99.983l5.64-39.67-33.6-33.6c-8.56-8.55-4.02-23.35 7.91-25.36C85.18.463 90.54.013 95.97.013c25.76 0 49.94 10 68.09 28.14 13.06 13.07 22.04 29.48 25.95 47.45 3.15 14.49 2.9 29.73-.71 44.07l-2.21 8.77 312.21 312.22c7.78 7.77 12.53 18.2 12.7 29.2z" opacity="1" data-original="#bec3d2" class=""></path><path fill="#d5dbe6" d="M499.86 499.873c-7.82 7.82-18.23 12.12-29.33 12.12-11.09 0-21.51-4.3-29.32-12.12l-312.78-312.77-8.77 2.21a96.312 96.312 0 0 1-23.54 2.92c-6.89 0-13.8-.74-20.54-2.21-17.97-3.91-34.38-12.88-47.44-25.95-22.34-22.33-31.88-53.85-26.81-83.99 2.01-11.99 16.8-16.63 25.39-8.04l33.58 33.57 39.67-5.63z" opacity="1" data-original="#d5dbe6" class=""></path></g></svg>