<svg
    xmlns="http://www.w3.org/2000/svg"
    version="1.1"
    width="164"
    height="164"
    x="0"
    y="0"
    viewBox="0 0 520 520">
    <g>
    <path
        fill="#07cc66"
        d="M320 45c11.051 0 20 8.95 20 20s-8.949 20-20 20c-11.04 0-20-8.95-20-20s8.96-20 20-20zM55 45c8.29 0 15 6.72 15 15s-6.71 15-15 15c-8.28 0-15-6.72-15-15s6.72-15 15-15z"
        opacity="1"
        data-original="#07cc66"></path>
    <path
        fill="#bce4ff"
        d="M45 180v295h435V180H45z"
        opacity="1"
        data-original="#bce4ff"></path>
    <path
        fill="#72b7dd"
        d="M480 475H45l164.01-139.28 51.9 49.28 52.3-48.93z"
        opacity="1"
        data-original="#72b7dd"></path>
    <path
        fill="#94d4ff"
        d="M480 180v295L313.21 336.07zM209.01 335.72 45 475V180z"
        opacity="1"
        data-original="#94d4ff"></path>
    <path
        fill="#ffd400"
        d="m439.23 96.19-25.66 18.64 9.8 30.17-25.66-18.64L372.051 145l9.799-30.17-25.66-18.64h31.72l9.8-30.17 9.8 30.17z"
        opacity="1"
        data-original="#ffd400"></path>
    <path
        fill="#ff5722"
        d="M351.34 149.54 309.42 180l-12.98 9.43 20.97 64.55-54.91-39.89-54.9 39.89 20.97-64.55-12.98-9.43-41.92-30.46h67.86L262.5 85l20.98 64.54z"
        opacity="1"
        data-original="#ff5722"></path>
    <path
        fill="#ffd400"
        d="m170 96.19-25.66 18.64 9.8 30.17-25.66-18.64L102.82 145l9.8-30.17-25.66-18.64h31.72l9.8-30.17 9.8 30.17z"
        opacity="1"
        data-original="#ffd400"></path>
    <g fill="#d7e816">
        <path
        d="M467.5 60c4.15 0 7.5 3.36 7.5 7.5s-3.35 7.5-7.5 7.5c-4.14 0-7.5-3.36-7.5-7.5s3.36-7.5 7.5-7.5zM452.5 145c4.15 0 7.5 3.36 7.5 7.5s-3.35 7.5-7.5 7.5c-4.14 0-7.5-3.36-7.5-7.5s3.36-7.5 7.5-7.5zM227.5 45c4.15 0 7.5 3.36 7.5 7.5s-3.35 7.5-7.5 7.5c-4.14 0-7.5-3.36-7.5-7.5s3.36-7.5 7.5-7.5zM57.5 125c4.15 0 7.5 3.36 7.5 7.5s-3.35 7.5-7.5 7.5c-4.14 0-7.5-3.36-7.5-7.5s3.36-7.5 7.5-7.5z"
        fill="#d7e816"
        opacity="1"
        data-original="#d7e816"></path>
    </g>
    <path
        fill="#ffffff"
        d="M375 460H145a5 5 0 1 1 0-10h230c2.762 0 5 2.238 5 5s-2.238 5-5 5zM335 440H185a5 5 0 1 1 0-10h150c2.762 0 5 2.238 5 5s-2.238 5-5 5zM295 420h-70a5 5 0 1 1 0-10h70c2.762 0 5 2.238 5 5s-2.238 5-5 5z"
        opacity="1"
        data-original="#ffffff"></path>
    <path
        fill="#07cc66"
        d="M320 45c11.051 0 20 8.95 20 20s-8.949 20-20 20c-11.04 0-20-8.95-20-20s8.96-20 20-20zM55 45c8.29 0 15 6.72 15 15s-6.71 15-15 15c-8.28 0-15-6.72-15-15s6.72-15 15-15z"
        opacity="1"
        data-original="#07cc66"></path>
    <path
        fill="#bce4ff"
        d="M45 180v295h435V180H45z"
        opacity="1"
        data-original="#bce4ff"></path>
    <path
        fill="#72b7dd"
        d="M480 475H45l164.01-139.28 51.9 49.28 52.3-48.93z"
        opacity="1"
        data-original="#72b7dd"></path>
    <path
        fill="#94d4ff"
        d="M480 180v295L313.21 336.07zM209.01 335.72 45 475V180z"
        opacity="1"
        data-original="#94d4ff"></path>
    <path
        fill="#ffd400"
        d="m439.23 96.19-25.66 18.64 9.8 30.17-25.66-18.64L372.051 145l9.799-30.17-25.66-18.64h31.72l9.8-30.17 9.8 30.17z"
        opacity="1"
        data-original="#ffd400"></path>
    <path
        fill="#ff5722"
        d="M351.34 149.54 309.42 180l-12.98 9.43 20.97 64.55-54.91-39.89-54.9 39.89 20.97-64.55-12.98-9.43-41.92-30.46h67.86L262.5 85l20.98 64.54z"
        opacity="1"
        data-original="#ff5722"></path>
    <path
        fill="#ffd400"
        d="m170 96.19-25.66 18.64 9.8 30.17-25.66-18.64L102.82 145l9.8-30.17-25.66-18.64h31.72l9.8-30.17 9.8 30.17z"
        opacity="1"
        data-original="#ffd400"></path>
    <g fill="#d7e816">
        <path
        d="M467.5 60c4.15 0 7.5 3.36 7.5 7.5s-3.35 7.5-7.5 7.5c-4.14 0-7.5-3.36-7.5-7.5s3.36-7.5 7.5-7.5zM452.5 145c4.15 0 7.5 3.36 7.5 7.5s-3.35 7.5-7.5 7.5c-4.14 0-7.5-3.36-7.5-7.5s3.36-7.5 7.5-7.5zM227.5 45c4.15 0 7.5 3.36 7.5 7.5s-3.35 7.5-7.5 7.5c-4.14 0-7.5-3.36-7.5-7.5s3.36-7.5 7.5-7.5zM57.5 125c4.15 0 7.5 3.36 7.5 7.5s-3.35 7.5-7.5 7.5c-4.14 0-7.5-3.36-7.5-7.5s3.36-7.5 7.5-7.5z"
        fill="#d7e816"
        opacity="1"
        data-original="#d7e816"></path>
    </g>
    <path
        fill="#ffffff"
        d="M375 460H145a5 5 0 1 1 0-10h230c2.762 0 5 2.238 5 5s-2.238 5-5 5zM335 440H185a5 5 0 1 1 0-10h150c2.762 0 5 2.238 5 5s-2.238 5-5 5zM295 420h-70a5 5 0 1 1 0-10h70c2.762 0 5 2.238 5 5s-2.238 5-5 5z"
        opacity="1"
        data-original="#ffffff"></path>
    </g>
</svg>