<svg xmlns="http://www.w3.org/2000/svg" version="1.1" xmlns:xlink="http://www.w3.org/1999/xlink" xmlns:svgjs="http://svgjs.com/svgjs" width="80" height="80" x="0" y="0" viewBox="0 0 468 468" style="enable-background: new 0 0 512 512" xml:space="preserve" class="">
    <g>
        <path fill="#ad9cdb" d="m414.559 248.971 5.807 1.231-6.715 1.905a9.993 9.993 0 0 0-7.031 7.457l-1.245 5.63-1.245-5.63a9.993 9.993 0 0 0-7.031-7.457l-6.715-1.905 5.807-1.231a9.996 9.996 0 0 0 7.639-7.412l1.546-6.349 1.546 6.349a9.993 9.993 0 0 0 7.637 7.412z" data-original="#ad9cdb"></path>
        <circle cx="430.156" cy="383.192" r="8.167" fill="#ff8a80" data-original="#ff8a80"></circle>
        <path fill="#ad9cdb" d="m54.146 248.971-5.807 1.231 6.715 1.905a9.993 9.993 0 0 1 7.031 7.457l1.245 5.63 1.245-5.63a9.993 9.993 0 0 1 7.031-7.457l6.715-1.905-5.807-1.231a9.996 9.996 0 0 1-7.639-7.412l-1.546-6.349-1.546 6.349a9.99 9.99 0 0 1-7.637 7.412z" data-original="#ad9cdb"></path>
        <circle cx="38.55" cy="383.192" r="8.167" fill="#ff8a80" data-original="#ff8a80"></circle>
        <path fill="#7676ff" d="M376.191 350.541v-51.135l-33.31-4.866a113.035 113.035 0 0 0-10.467-25.363l20.132-27.102-36.003-36.157-26.985 20.218a112.002 112.002 0 0 0-25.254-10.512l-4.845-33.453h-50.915l-4.845 33.453a112.03 112.03 0 0 0-25.254 10.512l-26.985-20.218-36.003 36.157 20.131 27.102a113.054 113.054 0 0 0-10.467 25.363l-33.31 4.866v51.135l33.31 4.866a113.035 113.035 0 0 0 10.467 25.363l-20.131 27.102 36.003 36.158 26.985-20.218a112.002 112.002 0 0 0 25.254 10.512l4.845 33.453h50.915l4.845-33.453a112.03 112.03 0 0 0 25.254-10.512l26.985 20.218 36.003-36.158-20.131-27.102a113.035 113.035 0 0 0 10.467-25.363z" data-original="#7676ff"></path>
        <path fill="#fedf5b" d="M361.179 143.873c0-69.268-59.641-125.421-127.179-125.421S106.821 74.605 106.821 143.873c0 37.947 19.486 71.954 46.734 94.951 14.722 12.425 23.165 30.711 23.165 49.94v67.998h114.557v-67.995c0-19.229 8.444-37.516 23.166-49.941 27.248-22.998 46.736-57.005 46.736-94.953z" data-original="#fedf5b" class=""></path>
        <path fill="#ffb53b" d="M197.151 283.656c0-19.229-8.443-37.515-23.165-49.94-27.247-22.997-46.734-57.003-46.734-94.951 0-55.08 37.712-101.863 87.117-118.72-59.05 9.577-107.548 61.366-107.548 123.827 0 37.947 19.487 71.954 46.734 94.951 14.722 12.425 23.165 30.711 23.165 49.94v67.998h114.557v-5.108h-94.126z" data-original="#ffb53b"></path>
        <path fill="#ffffff" d="M276.169 133.291h-1.183c-15.178 0-27.526 12.349-27.526 27.527v16.535h-26.92v-16.535c0-15.179-12.349-27.527-27.526-27.527h-1.183c-15.178 0-27.526 12.349-27.526 27.527v.971c0 15.179 12.349 27.527 27.526 27.527h18.709v102.755a5 5 0 1 0 10 0V187.354h26.92v104.718a5 5 0 1 0 10 0V189.316h18.709c15.178 0 27.526-12.349 27.526-27.527v-.971c0-15.178-12.348-27.527-27.526-27.527zm-84.338 46.025c-9.664 0-17.526-7.863-17.526-17.527v-.971c0-9.665 7.862-17.527 17.526-17.527h1.183c9.664 0 17.526 7.863 17.526 17.527v18.498zm101.864-17.527c0 9.665-7.862 17.527-17.526 17.527H257.46v-18.498c0-9.665 7.862-17.527 17.526-17.527h1.183c9.664 0 17.526 7.863 17.526 17.527z" data-original="#ffffff" class=""></path>
        <path fill="#334973" d="M193.639 358.741a37.022 37.022 0 0 0-.727 7.268c0 21.478 18.396 38.89 41.088 38.89s41.088-17.412 41.088-38.89c0-2.485-.257-4.912-.727-7.268z" data-original="#334973"></path>
        <path fill="#1f3259" d="M213.472 358.741h-19.833a37.022 37.022 0 0 0-.727 7.268c0 21.478 18.396 38.89 41.088 38.89 11.125 0 21.209-4.191 28.608-10.988a43.543 43.543 0 0 1-8.177.773c-21.644 0-39.366-15.843-40.959-35.943z" data-original="#1f3259"></path>
        <path fill="#334973" d="M288.284 297.465H179.716c-9.461 0-17.131 7.67-17.131 17.131v.738c0 9.461 7.67 17.131 17.131 17.131h108.568c9.461 0 17.131-7.67 17.131-17.131v-.738c.001-9.461-7.669-17.131-17.131-17.131z" data-original="#334973"></path>
        <path fill="#1f3259" d="M183.015 309.57v-12.104h-2.93c-9.665 0-17.501 7.835-17.501 17.501 0 9.665 7.835 17.501 17.501 17.501h25.828c-12.646-.001-22.898-10.253-22.898-22.898z" data-original="#1f3259"></path>
        <path fill="#ffffff" d="M288.294 332.467H179.725c-9.461 0-17.131 7.67-17.131 17.131v.738c0 9.461 7.67 17.131 17.131 17.131h108.568c9.461 0 17.131-7.67 17.131-17.131v-.738c.001-9.461-7.669-17.131-17.13-17.131z" data-original="#ffffff" class=""></path>
        <path fill="#dfe7f4" d="M183.025 344.571v-12.104h-2.93c-9.665 0-17.501 7.835-17.501 17.501 0 9.665 7.835 17.501 17.501 17.501h25.828c-12.647-.001-22.898-10.252-22.898-22.898z" data-original="#dfe7f4"></path>
        <path fill="#58ed9b" d="M83.834 47.242 51.095 4.248c-4.087-5.367-12.162-5.367-16.249 0L2.106 47.242c-5.119 6.722-.325 16.399 8.125 16.399h9.153v80.115h47.173V63.641h9.153c8.449 0 13.243-9.677 8.124-16.399z" data-original="#58ed9b"></path>
        <path fill="#24d1af" d="M66.557 126.368c-16.462 0-29.807-13.345-29.807-29.807v-32.92c0-7.933-5.319-14.624-12.586-16.7l29.72-39.03-2.789-3.663c-4.087-5.367-12.162-5.367-16.249 0L2.106 47.242c-5.119 6.722-.325 16.399 8.124 16.399h9.153v80.115l47.173-.021v-17.367z" data-original="#24d1af"></path>
        <path fill="#58ed9b" d="m465.894 47.242-32.74-42.993c-4.087-5.367-12.162-5.367-16.249 0l-32.74 42.993c-5.119 6.722-.325 16.399 8.125 16.399h9.153v80.115h47.173V63.641h9.153c8.45 0 13.244-9.677 8.125-16.399z" data-original="#58ed9b"></path>
        <path fill="#24d1af" d="M448.616 126.368c-16.462 0-29.807-13.345-29.807-29.807v-32.92c0-7.933-5.319-14.624-12.586-16.7l29.72-39.03-2.789-3.663c-4.087-5.367-12.162-5.367-16.249 0l-32.739 42.993c-5.119 6.722-.325 16.399 8.124 16.399h9.153v80.115l47.173-.021z" data-original="#24d1af"></path>
    </g>
</svg>