<svg xmlns="http://www.w3.org/2000/svg" version="1.1" xmlns:xlink="http://www.w3.org/1999/xlink" xmlns:svgjs="http://svgjs.com/svgjs" width="80" height="80" x="0" y="0" viewBox="0 0 468.021 468.021" style="enable-background: new 0 0 512 512" xml:space="preserve" class="">
    <g>
        <path fill="#ad9cdb" d="m104.546 280.744 5.914 1.253-6.839 1.94a10.18 10.18 0 0 0-7.161 7.594l-1.268 5.734-1.268-5.734a10.18 10.18 0 0 0-7.161-7.594l-6.839-1.94 5.914-1.253a10.177 10.177 0 0 0 7.779-7.549l1.575-6.465 1.575 6.465a10.18 10.18 0 0 0 7.779 7.549z" data-original="#ad9cdb"></path>
        <path fill="#ff8a80" d="m417.706 296.011 5.914 1.253-6.839 1.94a10.18 10.18 0 0 0-7.161 7.594l-1.268 5.734-1.268-5.734a10.18 10.18 0 0 0-7.161-7.594l-6.839-1.94 5.914-1.253a10.177 10.177 0 0 0 7.779-7.549l1.575-6.465 1.575 6.465a10.175 10.175 0 0 0 7.779 7.549z" data-original="#ff8a80"></path>
        <path fill="#fedf5b" d="M296.529 370.976v-74.32c0-21.018 9.216-41.006 25.286-54.587 29.742-25.136 51.013-62.307 51.013-103.786 0-75.712-65.1-137.088-138.818-137.088S95.193 62.572 95.193 138.284c0 41.477 21.27 78.647 51.011 103.784 16.069 13.581 25.285 33.568 25.285 54.585v74.324" data-original="#fedf5b" class=""></path>
        <path fill="#ffb53b" d="M191.845 291.564c0-21.018-9.216-41.004-25.285-54.585-29.741-25.137-51.011-62.307-51.011-103.783 0-60.577 41.675-111.97 96.094-130.1-64.028 10.864-116.45 67.25-116.45 135.189 0 41.477 21.27 78.647 51.011 103.783 16.069 13.581 25.285 33.568 25.285 54.585v74.324H296.53v-5.089H191.845z" data-original="#ffb53b" class=""></path>
        <path fill="#ffffff" d="M330.214 157.98v-34.522l-22.536-3.285a76.24 76.24 0 0 0-7.082-17.123l13.621-18.297-24.359-24.411-18.258 13.65a75.858 75.858 0 0 0-17.087-7.097l-3.278-22.585h-34.448l-3.278 22.585a75.905 75.905 0 0 0-17.087 7.097l-18.258-13.65-24.359 24.411 13.621 18.297a76.26 76.26 0 0 0-7.082 17.123l-22.536 3.285v34.522l22.536 3.285a76.24 76.24 0 0 0 7.082 17.123l-13.62 18.297 24.359 24.411 18.258-13.65a75.858 75.858 0 0 0 17.087 7.097l3.278 22.585h34.448l3.278-22.585a75.905 75.905 0 0 0 17.087-7.097l18.258 13.65 24.359-24.411-13.62-18.297a76.24 76.24 0 0 0 7.082-17.123z" data-original="#ffffff" class=""></path>
        <ellipse cx="234.011" cy="143.281" fill="#fedf5b" rx="48.102" ry="48.016" data-original="#fedf5b" class=""></ellipse>
        <path fill="#334973" d="M189.956 373.141a40.527 40.527 0 0 0-.794 7.944c0 23.477 20.079 42.508 44.849 42.508s44.849-19.032 44.849-42.508c0-2.716-.28-5.369-.794-7.944z" data-original="#334973"></path>
        <path fill="#1f3259" d="M209.58 373.141h-19.625a40.52 40.52 0 0 0-.794 7.944c0 23.476 20.079 42.508 44.849 42.508 11.731 0 22.405-4.273 30.397-11.261a47.34 47.34 0 0 1-10.04 1.082c-23.978 0-43.56-17.835-44.787-40.273z" data-original="#1f3259"></path>
        <path fill="#334973" d="M293.169 306.164H174.853c-10.379 0-18.794 8.414-18.794 18.794v.67c0 10.379 8.414 18.794 18.794 18.794h118.316c10.379 0 18.794-8.414 18.794-18.794v-.67c-.001-10.379-8.415-18.794-18.794-18.794z" data-original="#334973"></path>
        <path fill="#1f3259" d="M176.416 306.165h-1.228c-10.565 0-19.129 8.564-19.129 19.128s8.564 19.128 19.129 19.128h39.485c-21.129 0-38.257-17.128-38.257-38.256z" data-original="#1f3259"></path>
        <path fill="#dfe7f4" d="M293.169 344.422H174.853c-10.379 0-18.794 8.414-18.794 18.794v.67c0 10.379 8.414 18.794 18.794 18.794h118.316c10.379 0 18.794-8.414 18.794-18.794v-.67c-.001-10.38-8.415-18.794-18.794-18.794z" data-original="#dfe7f4"></path>
        <path fill="#c7cfe1" d="M176.416 344.422h-1.228c-10.565 0-19.129 8.564-19.129 19.128s8.564 19.128 19.129 19.128h39.485c-21.129.001-38.257-17.127-38.257-38.256z" data-original="#c7cfe1"></path>
        <path fill="#24d1af" d="m467.542 397.245-5.504-17.185c-1.52-4.745-6.544-7.342-11.222-5.801l-13.485 4.445a43.615 43.615 0 0 0-14.381-10.598v-14.385c0-4.99-3.987-9.035-8.906-9.035H396.23c-4.919 0-8.906 4.045-8.906 9.035v14.385a43.59 43.59 0 0 0-14.381 10.598l-13.485-4.445c-4.678-1.542-9.702 1.055-11.222 5.801l-5.504 17.185c-1.52 4.745 1.04 9.842 5.718 11.384l13.486 4.445a44.236 44.236 0 0 0 5.495 17.145l-8.337 11.641c-2.891 4.037-2.009 9.687 1.97 12.62l14.411 10.621c3.979 2.933 9.549 2.038 12.44-1.999l8.331-11.631c2.871.606 5.844.927 8.892.927s6.021-.321 8.892-.927l8.331 11.631c2.891 4.037 8.461 4.931 12.44 1.999l14.411-10.621c3.979-2.933 4.862-8.583 1.97-12.62l-8.337-11.641a44.236 44.236 0 0 0 5.495-17.145l13.486-4.445c4.676-1.542 7.236-6.639 5.716-11.384z" data-original="#24d1af"></path>
        <ellipse cx="405.136" cy="408.314" fill="#ffffff" rx="22.266" ry="22.586" data-original="#ffffff" class=""></ellipse>
        <path fill="#dfe7f4" d="M398.138 398.136c0-4.464 1.282-8.622 3.485-12.126-10.627 1.709-18.752 11.043-18.752 22.304 0 12.474 9.969 22.586 22.266 22.586 7.896 0 14.828-4.173 18.781-10.461a22.125 22.125 0 0 1-3.513.283c-12.299.001-22.267-10.112-22.267-22.586z" data-original="#dfe7f4"></path>
        <path fill="#24d1af" d="m125.291 397.245-5.504-17.185c-1.52-4.745-6.544-7.342-11.222-5.801l-13.485 4.445a43.615 43.615 0 0 0-14.381-10.598v-14.385c0-4.99-3.987-9.035-8.906-9.035H53.979c-4.919 0-8.906 4.045-8.906 9.035v14.385a43.59 43.59 0 0 0-14.381 10.598l-13.485-4.445c-4.678-1.542-9.702 1.055-11.222 5.801L.48 397.245c-1.52 4.745 1.04 9.842 5.718 11.384l13.486 4.445a44.236 44.236 0 0 0 5.495 17.145l-8.337 11.641c-2.891 4.037-2.009 9.687 1.97 12.62l14.411 10.62c3.979 2.933 9.549 2.038 12.44-1.999l8.331-11.631c2.871.606 5.844.927 8.892.927s6.021-.321 8.892-.927l8.331 11.631c2.891 4.037 8.461 4.931 12.44 1.999l14.411-10.621c3.979-2.933 4.862-8.583 1.97-12.62l-8.337-11.641a44.219 44.219 0 0 0 5.495-17.145l13.486-4.445c4.677-1.541 7.237-6.638 5.717-11.383z" data-original="#24d1af"></path>
        <ellipse cx="62.886" cy="408.314" fill="#ffffff" rx="22.266" ry="22.586" data-original="#ffffff" class=""></ellipse>
        <path fill="#dfe7f4" d="M55.887 398.136c0-4.464 1.282-8.622 3.485-12.126-10.627 1.709-18.752 11.043-18.752 22.304 0 12.474 9.969 22.586 22.266 22.586 7.896 0 14.828-4.173 18.781-10.461a22.125 22.125 0 0 1-3.513.283c-12.298.001-22.267-10.112-22.267-22.586z" data-original="#dfe7f4"></path>
        <path fill="#c7cfe1" d="M67.137 88.73a4.985 4.985 0 0 1-1.838-.352L42.337 79.29a5 5 0 1 1 3.68-9.299l22.962 9.088c5.091 1.834 3.46 9.837-1.842 9.651zM47.032 230.952c-5.304.186-6.93-7.819-1.841-9.65l22.962-9.088a5 5 0 0 1 3.68 9.299l-22.962 9.088a5.009 5.009 0 0 1-1.839.351zM54.708 155.567H5a5 5 0 1 1 0-10h49.708a5 5 0 1 1 0 10zM423.844 225.892a4.986 4.986 0 0 1-1.839-.352l-22.962-9.088a5.002 5.002 0 0 1-2.81-6.489 5.008 5.008 0 0 1 6.489-2.81l22.962 9.088c5.091 1.833 3.461 9.836-1.84 9.651zM398.03 83.67c-5.304.186-6.93-7.818-1.841-9.65l22.962-9.088a5 5 0 0 1 3.679 9.299l-22.962 9.088a4.992 4.992 0 0 1-1.838.351zM463.021 149.965h-49.707c-2.762 0-5-2.238-5-5s2.238-5 5-5h49.707c2.762 0 5 2.238 5 5s-2.238 5-5 5z" data-original="#c7cfe1"></path>
    </g>
</svg>