<svg xmlns="http://www.w3.org/2000/svg" version="1.1" xmlns:xlink="http://www.w3.org/1999/xlink" xmlns:svgjs="http://svgjs.com/svgjs" width="80" height="80" x="0" y="0" viewBox="0 0 468 468" style="enable-background: new 0 0 512 512" xml:space="preserve" class="">
    <g>
        <path fill="#ad9cdb" d="m438.864 58.767 5.931 1.257-6.859 1.946a10.208 10.208 0 0 0-7.181 7.618l-1.272 5.752-1.272-5.752a10.21 10.21 0 0 0-7.181-7.618l-6.859-1.946 5.931-1.257a10.21 10.21 0 0 0 7.802-7.572l1.579-6.486 1.579 6.486a10.21 10.21 0 0 0 7.802 7.572z" data-original="#ad9cdb"></path>
        <circle cx="437.649" cy="249.599" r="8.167" fill="#ff8a80" data-original="#ff8a80"></circle>
        <circle cx="47.738" cy="42.365" r="8.167" fill="#ad9cdb" data-original="#ad9cdb"></circle>
        <path fill="#ff8a80" d="m33.641 267.227 5.931 1.257-6.859 1.946a10.208 10.208 0 0 0-7.181 7.618L24.26 283.8l-1.272-5.752a10.21 10.21 0 0 0-7.181-7.618l-6.859-1.946 5.931-1.257a10.21 10.21 0 0 0 7.802-7.573l1.579-6.486 1.579 6.486a10.21 10.21 0 0 0 7.802 7.573z" data-original="#ff8a80"></path>
        <path fill="#c7cfe1" d="M230.937 56.017a5 5 0 0 1-5-5V10.176a5 5 0 0 1 10 0v40.841a5 5 0 0 1-5 5zM173.944 68.577a5.004 5.004 0 0 1-4.622-3.088l-7.813-18.866a5 5 0 1 1 9.24-3.826l7.813 18.866c1.408 3.198-1.15 6.979-4.618 6.914zM94.664 151.187a4.99 4.99 0 0 1-1.912-.382L73.89 142.99a5 5 0 0 1 3.827-9.239l18.862 7.814c5.022 1.896 3.342 9.808-1.915 9.622zM78.149 273.485c-5.26.187-6.935-7.726-1.916-9.621l18.862-7.815a5 5 0 0 1 3.828 9.238l-18.862 7.815a4.97 4.97 0 0 1-1.912.383zM392.194 267.825a4.99 4.99 0 0 1-1.912-.382l-18.862-7.814a5 5 0 0 1 3.827-9.239l18.862 7.814a5 5 0 0 1-1.915 9.621zM370.993 145.527c-5.26.187-6.935-7.726-1.916-9.621l18.862-7.814a5 5 0 1 1 3.827 9.239l-18.862 7.814a4.986 4.986 0 0 1-1.911.382zM288.397 66.232c-3.469.065-6.026-3.716-4.618-6.915l7.813-18.866a5.001 5.001 0 0 1 9.24 3.826l-7.813 18.866a5 5 0 0 1-4.622 3.089zM126.089 101.994c-1.28 0-2.56-.488-3.536-1.465L93.681 71.65a5 5 0 0 1 7.072-7.07l28.872 28.879c3.187 2.971.742 8.686-3.536 8.535zM84.454 208.66H43.622a5 5 0 0 1 0-10h40.832a5 5 0 0 1 0 10zM424.378 202.534h-40.832a5 5 0 0 1 0-10h40.832a5 5 0 0 1 0 10zM337.58 97.662c-4.278.152-6.722-5.565-3.536-8.535l28.873-28.879a5 5 0 1 1 7.072 7.07l-28.873 28.879a4.985 4.985 0 0 1-3.536 1.465z" data-original="#c7cfe1"></path>
        <path fill="#fedf5b" d="M352.412 199.901c0-64.712-55.53-117.171-118.412-117.171s-118.412 52.459-118.412 117.171c0 35.451 18.143 67.221 43.512 88.705 13.707 11.608 21.568 28.691 21.568 46.655v63.525h106.66v-63.522c0-17.965 7.862-35.048 21.569-46.656 25.371-21.484 43.515-53.255 43.515-88.707z" data-original="#fedf5b" class=""></path>
        <path fill="#ffb53b" d="M179.516 283.501c-25.369-21.484-43.512-53.254-43.512-88.705 0-51.255 34.838-94.816 80.571-110.72-55.366 8.582-100.987 57.17-100.987 115.825 0 35.451 18.143 67.221 43.512 88.705 13.707 11.608 21.568 28.691 21.568 46.655v63.525h20.416v-68.63c0-17.964-7.861-35.047-21.568-46.655z" data-original="#ffb53b"></path>
        <path fill="#ffffff" d="M254.416 354.101a5 5 0 0 1-5-5V202.462a5 5 0 0 1 10 0v146.639a5 5 0 0 1-5 5zM213.584 354.101a5 5 0 0 1-5-5V202.462a5 5 0 0 1 10 0v146.639a5 5 0 0 1-5 5z" data-original="#ffffff"></path>
        <path fill="#9595fc" d="M234 261.927c32.947 0 59.752-26.676 59.752-59.465S266.947 142.998 234 142.998s-59.752 26.676-59.752 59.465 26.805 59.464 59.752 59.464z" data-original="#9595fc"></path>
        <path fill="#7676ff" d="M194.664 192.252c0-19.133 9.136-36.173 23.285-47.058-25.174 6.998-43.701 30.013-43.701 57.268 0 32.789 26.804 59.465 59.752 59.465 13.722 0 26.369-4.639 36.467-12.407a59.827 59.827 0 0 1-16.051 2.197c-32.948 0-59.752-26.676-59.752-59.465z" data-original="#7676ff"></path>
        <path fill="#ffffff" d="m221.801 225.581-19.283-17.148a5 5 0 0 1 6.645-7.473l15.677 13.942 33.703-35.276a5 5 0 0 1 7.23 6.908l-37.036 38.765c-2.357 2.467-4.607 2.353-6.936.282z" data-original="#ffffff"></path>
        <path fill="#334973" d="M196.421 400.636a34.738 34.738 0 0 0-.677 6.79c0 20.066 17.128 36.332 38.256 36.332s38.256-16.266 38.256-36.332c0-2.322-.239-4.589-.677-6.79z" data-original="#334973" class=""></path>
        <path fill="#1f3259" d="M216.16 407.426c0-2.322.239-4.589.677-6.79h-20.416a34.738 34.738 0 0 0-.677 6.79c0 20.066 17.128 36.332 38.256 36.332a40.17 40.17 0 0 0 10.208-1.318c-16.17-4.243-28.048-18.307-28.048-35.014z" data-original="#1f3259" class=""></path>
        <path fill="#334973" d="M284.48 343.391H183.52c-8.844 0-16.013 7.169-16.013 16.013v.673c0 8.844 7.169 16.013 16.013 16.013h100.96c8.844 0 16.013-7.169 16.013-16.013v-.673c0-8.844-7.169-16.013-16.013-16.013z" data-original="#334973" class=""></path>
        <path fill="#1f3259" d="M187.923 350.564v-7.173h-4.07c-9.027 0-16.346 7.32-16.346 16.349 0 9.03 7.318 16.349 16.346 16.349h29.59c-14.094.001-25.52-11.428-25.52-25.525z" data-original="#1f3259" class=""></path>
        <path fill="#dfe7f4" d="M284.48 376.064H183.52c-8.844 0-16.013 7.169-16.013 16.013v.673c0 8.844 7.169 16.013 16.013 16.013h100.96c8.844 0 16.013-7.169 16.013-16.013v-.673c0-8.844-7.169-16.013-16.013-16.013z" data-original="#dfe7f4"></path>
        <path fill="#c7cfe1" d="M187.923 383.237v-7.173h-4.07c-9.027 0-16.346 7.32-16.346 16.349 0 9.03 7.318 16.349 16.346 16.349h29.59c-14.094 0-25.52-11.428-25.52-25.525z" data-original="#c7cfe1"></path>
        <path fill="#58ed9b" d="M39.985 349.633c0-1.282-.432-2.514-1.171-3.561a18.279 18.279 0 0 1-3.272-12.38c.824-8.552 7.683-15.523 16.223-16.454 11.072-1.207 20.438 7.435 20.438 18.266 0 3.598-1.045 6.946-2.835 9.777-2.57 4.05-.195 10.484 5.04 10.37h33.249v32.473c.114 5.235-6.315 7.612-10.365 5.045-3.426-2.168-7.609-3.244-12.076-2.696-8.357 1.025-15.065 7.826-15.966 16.199-1.19 11.063 7.445 20.416 18.264 20.416 3.92 0 7.545-1.237 10.526-3.332 3.891-3.025 9.767.077 9.617 4.82v34.247H0V355.65h33.968a6.016 6.016 0 0 0 6.017-6.017z" data-original="#58ed9b"></path>
        <path fill="#24d1af" d="M20.416 381.142v-25.491H0v107.173h107.657v-20.421H81.663c-33.826.001-61.247-27.427-61.247-61.261z" data-original="#24d1af" class=""></path>
        <path fill="#58ed9b" d="M428.015 349.633c0-1.282.432-2.514 1.171-3.561a18.279 18.279 0 0 0 3.272-12.38c-.824-8.552-7.683-15.523-16.223-16.454-11.072-1.207-20.438 7.435-20.438 18.266 0 3.598 1.045 6.946 2.835 9.777 2.57 4.05.195 10.484-5.04 10.37h-33.249v32.473c-.114 5.235 6.315 7.612 10.365 5.045 3.426-2.168 7.609-3.244 12.076-2.696 8.357 1.025 15.065 7.826 15.966 16.199 1.19 11.063-7.445 20.416-18.264 20.416-3.92 0-7.545-1.237-10.526-3.332-3.891-3.025-9.767.077-9.617 4.82v34.247H468V355.651h-33.968a6.017 6.017 0 0 1-6.017-6.018z" data-original="#58ed9b"></path>
        <path fill="#24d1af" d="M447.584 381.142v-25.491H468v107.173H360.342v-20.421h25.994c33.827.001 61.248-27.427 61.248-61.261z" data-original="#24d1af" class=""></path>
    </g>
</svg>