<svg
  xmlns="http://www.w3.org/2000/svg"
  version="1.1"
  width="164"
  height="164"
  x="0"
  y="0"
  viewBox="0 0 520 520">
  <g>
    <path
      fill="#ffd400"
      d="M303.67 351.609c.07 1.54.12 3.091.12 4.65 0 33.88-17.42 63.7-43.79 80.99-26.37-17.29-43.78-47.11-43.78-80.99 0-1.56.04-3.11.12-4.65 13.26-6.18 28.06-9.64 43.66-9.64 15.61.001 30.4 3.461 43.67 9.64z"
      opacity="1"
      data-original="#ffd400"></path>
    <path
      fill="#d94556"
      d="M378.06 346.649c0 12.71-2.67 24.86-7.52 36.101-6.69-15.511-17.58-29.25-31.46-40.181a231.342 231.342 0 0 0 19.38-52.59c12.38 16.271 19.6 35.741 19.6 56.67zM161.55 288.979a231.329 231.329 0 0 0 19.38 52.58c-13.88 10.94-24.77 24.67-31.47 40.19-4.84-11.24-7.51-23.391-7.51-36.101 0-20.928 7.22-40.398 19.6-56.669z"
      opacity="1"
      data-original="#d94556"></path>
    <path
      fill="#d7deed"
      d="M260 40.62c-110.121 72.215-137.859 219.256-65.85 326.02 38.417-31.689 93.62-31.466 131.71 0C397.446 260.703 370.814 113.289 260 40.62z"
      opacity="1"
      data-original="#d7deed"></path>
    <path
      fill="#ff5722"
      d="M430 109.97c16.57 0 30 13.431 30 30 0 16.57-13.43 30-30 30-16.56 0-30-13.43-30-30s13.44-30 30-30zM80 189.97c13.81 0 25 11.191 25 25 0 13.811-11.19 25-25 25-13.8 0-25-11.189-25-25 0-13.81 11.2-25 25-25z"
      opacity="1"
      data-original="#ff5722"></path>
    <path
      fill="#97a8c4"
      d="M260 106.32c12.06 0 21.83 9.77 21.83 21.819 0 12.061-9.77 21.83-21.83 21.83-12.05 0-21.82-9.77-21.82-21.83 0-12.049 9.77-21.819 21.82-21.819z"
      opacity="1"
      data-original="#97a8c4"></path>
    <g fill="#d7e816">
      <path
        d="M457.5 207.47c4.15 0 7.5 3.36 7.5 7.5 0 4.141-3.35 7.5-7.5 7.5-4.14 0-7.5-3.359-7.5-7.5 0-4.14 3.36-7.5 7.5-7.5zM442.5 379.97c4.15 0 7.5 3.36 7.5 7.5s-3.35 7.5-7.5 7.5c-4.14 0-7.5-3.36-7.5-7.5s3.36-7.5 7.5-7.5zM402.5 279.97c4.15 0 7.5 3.36 7.5 7.5s-3.35 7.5-7.5 7.5c-4.14 0-7.5-3.36-7.5-7.5s3.36-7.5 7.5-7.5zM377.5 49.97c4.15 0 7.5 3.36 7.5 7.5 0 4.141-3.35 7.5-7.5 7.5-4.14 0-7.5-3.359-7.5-7.5 0-4.14 3.36-7.5 7.5-7.5zM142.5 99.97c4.15 0 7.5 3.36 7.5 7.5 0 4.141-3.35 7.5-7.5 7.5-4.14 0-7.5-3.359-7.5-7.5 0-4.14 3.36-7.5 7.5-7.5zM112.5 429.97c4.15 0 7.5 3.36 7.5 7.5s-3.35 7.5-7.5 7.5c-4.14 0-7.5-3.36-7.5-7.5s3.36-7.5 7.5-7.5zM82.5 309.97c4.15 0 7.5 3.36 7.5 7.5s-3.35 7.5-7.5 7.5c-4.14 0-7.5-3.36-7.5-7.5s3.36-7.5 7.5-7.5zM77.5 49.97c4.15 0 7.5 3.36 7.5 7.5 0 4.141-3.35 7.5-7.5 7.5-4.14 0-7.5-3.359-7.5-7.5 0-4.14 3.36-7.5 7.5-7.5z"
        fill="#d7e816"
        opacity="1"
        data-original="#d7e816"></path>
    </g>
    <path
      fill="#ecf0f1"
      d="M322.83 435.94a5 5 0 0 1-5-5v-27.88c0-2.762 2.238-5 5-5s5 2.238 5 5v27.88a5 5 0 0 1-5 5zM210 479.38a5 5 0 0 1-5-5v-62.021a5 5 0 1 1 10 0v62.021a5 5 0 0 1-5 5zM170 426.649a5 5 0 0 1-5-5v-18.59a5 5 0 1 1 10 0v18.59a5 5 0 0 1-5 5zM345 453.94a5 5 0 0 1-5-5v-33.97c0-2.762 2.238-5 5-5s5 2.238 5 5v33.97a5 5 0 0 1-5 5zM365 474.97a5 5 0 0 1-5-5v-70c0-2.762 2.238-5 5-5s5 2.238 5 5v70a5 5 0 0 1-5 5zM190 449.97a5 5 0 0 1-5-5v-50a5 5 0 1 1 10 0v50a5 5 0 0 1-5 5z"
      opacity="1"
      data-original="#ecf0f1"></path>
    <path
      fill="#72b7dd"
      d="M230 319.97a5 5 0 0 1-5-5v-50a5 5 0 1 1 10 0v50a5 5 0 0 1-5 5zM250 319.97a5 5 0 0 1-5-5v-25a5 5 0 1 1 10 0v25a5 5 0 0 1-5 5zM275 299.97a5 5 0 0 1-5-5v-30c0-2.762 2.238-5 5-5s5 2.238 5 5v30a5 5 0 0 1-5 5zM295 329.97a5 5 0 0 1-5-5v-40c0-2.762 2.238-5 5-5s5 2.238 5 5v40a5 5 0 0 1-5 5z"
      opacity="1"
      data-original="#72b7dd"></path>
    <path
      fill="#5cbeff"
      d="M198.44 174.97v90H325v-90z"
      opacity="1"
      data-original="#5cbeff"></path>
    <path
      fill="#0284cc"
      d="M325 264.97H198.44l47.02-45 15.681 15 15.959-15z"
      opacity="1"
      data-original="#0284cc"></path>
    <path
      fill="#079cff"
      d="M325 174.97v90l-47.9-45zM245.46 219.97l-47.02 45v-90z"
      opacity="1"
      data-original="#079cff"></path>
    <path
      fill="#ffd400"
      d="M303.67 351.609c.07 1.54.12 3.091.12 4.65 0 33.88-17.42 63.7-43.79 80.99-26.37-17.29-43.78-47.11-43.78-80.99 0-1.56.04-3.11.12-4.65 13.26-6.18 28.06-9.64 43.66-9.64 15.61.001 30.4 3.461 43.67 9.64z"
      opacity="1"
      data-original="#ffd400"></path>
    <path
      fill="#d94556"
      d="M378.06 346.649c0 12.71-2.67 24.86-7.52 36.101-6.69-15.511-17.58-29.25-31.46-40.181a231.342 231.342 0 0 0 19.38-52.59c12.38 16.271 19.6 35.741 19.6 56.67zM161.55 288.979a231.329 231.329 0 0 0 19.38 52.58c-13.88 10.94-24.77 24.67-31.47 40.19-4.84-11.24-7.51-23.391-7.51-36.101 0-20.928 7.22-40.398 19.6-56.669z"
      opacity="1"
      data-original="#d94556"></path>
    <path
      fill="#d7deed"
      d="M260 40.62c-110.121 72.215-137.859 219.256-65.85 326.02 38.417-31.689 93.62-31.466 131.71 0C397.446 260.703 370.814 113.289 260 40.62z"
      opacity="1"
      data-original="#d7deed"></path>
    <path
      fill="#ff5722"
      d="M430 109.97c16.57 0 30 13.431 30 30 0 16.57-13.43 30-30 30-16.56 0-30-13.43-30-30s13.44-30 30-30zM80 189.97c13.81 0 25 11.191 25 25 0 13.811-11.19 25-25 25-13.8 0-25-11.189-25-25 0-13.81 11.2-25 25-25z"
      opacity="1"
      data-original="#ff5722"></path>
    <path
      fill="#97a8c4"
      d="M260 106.32c12.06 0 21.83 9.77 21.83 21.819 0 12.061-9.77 21.83-21.83 21.83-12.05 0-21.82-9.77-21.82-21.83 0-12.049 9.77-21.819 21.82-21.819z"
      opacity="1"
      data-original="#97a8c4"></path>
    <g fill="#d7e816">
      <path
        d="M457.5 207.47c4.15 0 7.5 3.36 7.5 7.5 0 4.141-3.35 7.5-7.5 7.5-4.14 0-7.5-3.359-7.5-7.5 0-4.14 3.36-7.5 7.5-7.5zM442.5 379.97c4.15 0 7.5 3.36 7.5 7.5s-3.35 7.5-7.5 7.5c-4.14 0-7.5-3.36-7.5-7.5s3.36-7.5 7.5-7.5zM402.5 279.97c4.15 0 7.5 3.36 7.5 7.5s-3.35 7.5-7.5 7.5c-4.14 0-7.5-3.36-7.5-7.5s3.36-7.5 7.5-7.5zM377.5 49.97c4.15 0 7.5 3.36 7.5 7.5 0 4.141-3.35 7.5-7.5 7.5-4.14 0-7.5-3.359-7.5-7.5 0-4.14 3.36-7.5 7.5-7.5zM142.5 99.97c4.15 0 7.5 3.36 7.5 7.5 0 4.141-3.35 7.5-7.5 7.5-4.14 0-7.5-3.359-7.5-7.5 0-4.14 3.36-7.5 7.5-7.5zM112.5 429.97c4.15 0 7.5 3.36 7.5 7.5s-3.35 7.5-7.5 7.5c-4.14 0-7.5-3.36-7.5-7.5s3.36-7.5 7.5-7.5zM82.5 309.97c4.15 0 7.5 3.36 7.5 7.5s-3.35 7.5-7.5 7.5c-4.14 0-7.5-3.36-7.5-7.5s3.36-7.5 7.5-7.5zM77.5 49.97c4.15 0 7.5 3.36 7.5 7.5 0 4.141-3.35 7.5-7.5 7.5-4.14 0-7.5-3.359-7.5-7.5 0-4.14 3.36-7.5 7.5-7.5z"
        fill="#d7e816"
        opacity="1"
        data-original="#d7e816"></path>
    </g>
    <path
      fill="#ecf0f1"
      d="M322.83 435.94a5 5 0 0 1-5-5v-27.88c0-2.762 2.238-5 5-5s5 2.238 5 5v27.88a5 5 0 0 1-5 5zM210 479.38a5 5 0 0 1-5-5v-62.021a5 5 0 1 1 10 0v62.021a5 5 0 0 1-5 5zM170 426.649a5 5 0 0 1-5-5v-18.59a5 5 0 1 1 10 0v18.59a5 5 0 0 1-5 5zM345 453.94a5 5 0 0 1-5-5v-33.97c0-2.762 2.238-5 5-5s5 2.238 5 5v33.97a5 5 0 0 1-5 5zM365 474.97a5 5 0 0 1-5-5v-70c0-2.762 2.238-5 5-5s5 2.238 5 5v70a5 5 0 0 1-5 5zM190 449.97a5 5 0 0 1-5-5v-50a5 5 0 1 1 10 0v50a5 5 0 0 1-5 5z"
      opacity="1"
      data-original="#ecf0f1"></path>
    <path
      fill="#72b7dd"
      d="M230 319.97a5 5 0 0 1-5-5v-50a5 5 0 1 1 10 0v50a5 5 0 0 1-5 5zM250 319.97a5 5 0 0 1-5-5v-25a5 5 0 1 1 10 0v25a5 5 0 0 1-5 5zM275 299.97a5 5 0 0 1-5-5v-30c0-2.762 2.238-5 5-5s5 2.238 5 5v30a5 5 0 0 1-5 5zM295 329.97a5 5 0 0 1-5-5v-40c0-2.762 2.238-5 5-5s5 2.238 5 5v40a5 5 0 0 1-5 5z"
      opacity="1"
      data-original="#72b7dd"></path>
    <path
      fill="#5cbeff"
      d="M198.44 174.97v90H325v-90z"
      opacity="1"
      data-original="#5cbeff"></path>
    <path
      fill="#0284cc"
      d="M325 264.97H198.44l47.02-45 15.681 15 15.959-15z"
      opacity="1"
      data-original="#0284cc"></path>
    <path
      fill="#079cff"
      d="M325 174.97v90l-47.9-45zM245.46 219.97l-47.02 45v-90z"
      opacity="1"
      data-original="#079cff"></path>
  </g>
</svg>